<?xml version="1.0" standalone="no"?>
<!DOCTYPE svg PUBLIC "-//W3C//DTD SVG 20010904//EN"
 "http://www.w3.org/TR/2001/REC-SVG-20010904/DTD/svg10.dtd">
<svg version="1.0" xmlns="http://www.w3.org/2000/svg"
 width="400.000000pt" height="400.000000pt" viewBox="0 0 400.000000 400.000000"
 preserveAspectRatio="xMidYMid meet">
<metadata>
Created by potrace 1.11, written by Peter Selinger 2001-2013
</metadata>
<g transform="translate(0.000000,400.000000) scale(0.100000,-0.100000)"
fill="#000000" stroke="none">
<path d="M340 3971 c0 -17 4 -32 8 -35 5 -3 36 -6 70 -7 l62 -2 1 -41 1 -41
10 30 c18 52 24 55 96 48 37 -3 69 -7 71 -9 3 -3 -4 -11 -15 -20 -16 -13 -17
-15 -1 -10 9 3 17 2 17 -3 0 -18 -38 -40 -84 -51 -27 -6 -54 -14 -60 -18 -6
-3 -18 -7 -26 -7 -8 0 -16 -10 -18 -23 -2 -13 -11 -26 -20 -29 -62 -21 -132
-58 -132 -69 0 -8 0 -16 0 -19 0 -3 -7 -19 -16 -36 -18 -36 -17 -39 25 -42 39
-3 40 -18 0 -36 -16 -7 -28 -15 -26 -18 3 -2 -1 -16 -9 -31 -10 -19 -10 -29
-2 -39 6 -8 9 -15 7 -16 -2 -2 -18 -13 -36 -26 -26 -18 -31 -26 -24 -43 9 -26
-5 -82 -32 -120 -17 -26 -15 -33 7 -29 5 1 5 -6 1 -16 -15 -39 -24 -135 -14
-161 6 -15 7 -52 4 -83 -5 -43 -3 -64 10 -89 9 -18 15 -40 12 -50 -2 -9 0 -26
6 -36 20 -34 17 -44 -9 -38 -18 5 -24 2 -24 -10 0 -21 -9 -20 -33 2 -19 16
-20 16 -15 -3 3 -11 7 -27 9 -35 3 -11 -9 -17 -46 -23 -75 -14 -75 -14 -75
-52 0 -32 -3 -36 -20 -30 -20 6 -20 2 -20 -359 0 -237 4 -366 10 -366 6 0 10
7 10 15 0 8 5 15 11 15 6 0 9 7 5 15 -3 9 0 15 9 15 8 0 15 4 15 9 0 5 14 11
31 15 25 5 30 10 26 26 -3 10 0 21 7 24 8 3 7 7 -2 14 -10 7 -10 14 2 37 8 16
12 33 8 39 -3 6 -5 21 -3 33 1 13 -4 30 -13 38 -8 9 -13 22 -10 30 4 8 1 15
-5 15 -6 0 -11 7 -11 16 0 9 -5 12 -12 8 -13 -8 -3 12 20 39 8 9 10 17 4 17
-6 0 -12 -6 -15 -12 -7 -19 -25 33 -19 54 2 10 11 18 18 18 17 0 18 12 2 28
-7 7 -9 12 -5 12 4 0 2 10 -4 23 -11 20 -11 21 4 8 10 -7 17 -20 17 -29 0 -8
6 -23 14 -31 7 -9 24 -43 37 -76 31 -81 40 -90 108 -109 56 -16 58 -17 57 -49
-1 -17 -7 -38 -14 -46 -8 -8 -10 -17 -5 -20 7 -5 10 -69 4 -96 -1 -5 -2 -44 0
-85 1 -41 2 -98 3 -127 0 -28 4 -47 7 -41 4 6 9 5 12 -3 5 -13 11 305 8 400
l-2 44 63 -8 c185 -21 325 -31 338 -24 13 7 13 9 0 10 -8 1 30 7 85 14 l100
12 -100 3 c-67 2 -88 5 -62 9 21 3 38 9 38 14 -1 17 -13 63 -23 83 -11 24 -8
66 7 76 6 4 21 8 35 8 31 0 131 -36 140 -50 8 -12 54 2 65 19 3 6 10 11 15 11
13 0 21 -33 10 -44 -15 -15 -12 -26 8 -26 11 0 25 14 36 36 9 20 19 34 21 32
6 -6 -23 -105 -41 -140 -13 -25 -13 -27 7 -23 12 3 23 6 24 7 1 2 11 49 23
105 22 106 54 173 93 194 15 8 19 8 15 0 -4 -6 -1 -11 7 -11 15 0 33 -73 22
-90 -12 -19 -8 -140 5 -155 7 -8 9 -15 5 -15 -4 0 -2 -7 5 -15 10 -11 10 -19
2 -27 -6 -6 -8 -17 -5 -24 3 -8 0 -14 -6 -14 -6 0 -11 -7 -11 -15 0 -8 -16
-23 -36 -33 l-36 -18 44 -13 c24 -7 57 -19 73 -27 99 -48 106 -65 49 -109
l-36 -28 -38 22 c-32 18 -43 19 -63 10 -14 -6 -28 -22 -31 -35 -5 -20 -11 -23
-34 -18 -15 3 -42 13 -61 21 -46 21 -59 4 -26 -35 14 -17 21 -33 16 -36 -14
-9 -59 32 -81 72 -11 21 -19 30 -20 20 0 -9 -8 -21 -17 -27 -18 -9 -11 -26 9
-26 17 0 18 -36 1 -61 -8 -13 -12 -32 -9 -42 4 -12 -3 -28 -20 -47 -15 -16
-29 -45 -31 -65 -5 -33 -2 -38 18 -43 51 -14 102 -1 122 31 10 15 89 16 105 0
15 -15 16 -54 2 -63 -17 -10 -11 -25 9 -25 11 0 21 -5 23 -10 2 -6 32 -13 68
-16 58 -6 67 -4 85 15 16 18 17 25 7 41 -7 11 -12 26 -12 34 0 19 -20 26 -42
15 -22 -12 -35 9 -17 26 8 7 31 18 51 23 40 11 48 4 48 -44 0 -28 8 -31 26 -6
20 27 38 3 23 -32 -10 -20 -10 -29 -1 -38 16 -16 15 -38 -2 -38 -7 0 -19 -6
-25 -14 -16 -19 -114 -30 -247 -27 -92 2 -122 -2 -170 -19 -33 -11 -75 -26
-94 -31 -31 -10 -116 -86 -106 -96 2 -2 -5 -28 -16 -56 -10 -29 -21 -60 -23
-70 -2 -9 -7 -21 -10 -27 -3 -5 3 -15 15 -22 34 -21 22 -29 -13 -8 -20 12 -37
16 -46 11 -22 -14 8 -47 40 -45 22 2 26 -1 22 -17 -7 -24 22 -36 44 -18 14 12
15 11 9 -8 -6 -18 -4 -21 16 -17 22 4 22 4 -1 -6 -17 -7 -28 -7 -35 0 -18 18
-27 11 -15 -11 9 -17 8 -23 -2 -30 -24 -15 -34 -3 -32 36 2 30 0 35 -11 26
-10 -9 -11 -21 -3 -56 6 -27 14 -41 18 -34 5 9 12 8 24 -5 24 -23 113 -14 153
17 20 16 80 16 86 0 3 -8 -7 -29 -24 -46 -16 -17 -32 -44 -36 -59 -3 -16 -12
-28 -21 -28 -13 0 -13 3 -3 15 10 13 9 15 -9 15 -27 0 -37 -24 -23 -56 12 -24
32 -33 32 -13 0 15 19 31 62 54 40 21 58 17 33 -8 -8 -9 -15 -23 -15 -32 0 -8
-6 -18 -14 -21 -8 -3 -16 -14 -19 -25 -6 -22 -27 -26 -27 -4 0 8 -6 15 -13 15
-30 0 -67 26 -67 46 0 18 -5 21 -30 18 -24 -3 -33 1 -39 19 -5 12 -5 27 0 33
5 6 3 18 -6 30 -14 18 -14 18 -15 -8 0 -22 -5 -28 -21 -28 -18 0 -20 4 -15 26
6 22 5 24 -8 12 -7 -7 -12 -16 -9 -20 2 -5 -5 -8 -17 -8 -25 0 -24 -27 2 -51
10 -9 15 -19 11 -22 -9 -10 -46 42 -49 69 -2 18 3 24 17 24 10 0 19 5 19 10 0
6 -13 9 -29 8 -16 -1 -27 -6 -25 -10 3 -4 0 -8 -7 -8 -8 0 -8 -4 -1 -12 8 -10
-17 -14 -116 -16 -70 -2 -128 -5 -130 -7 -6 -6 -3 -165 4 -200 5 -29 3 -35
-11 -35 -9 0 -22 -13 -28 -29 -13 -36 -45 -47 -63 -23 -8 9 -14 15 -14 12 -1
-3 -3 -13 -5 -24 -5 -28 -15 -33 -75 -39 -30 -3 -49 -3 -43 0 17 6 17 50 1 56
-7 2 -5 3 4 2 10 -2 22 3 29 11 9 11 8 14 -2 15 -8 1 -20 2 -28 3 -43 4 5 46
70 61 21 5 25 11 22 30 -4 16 -10 21 -23 18 -10 -3 -20 2 -24 12 -3 9 -10 13
-16 10 -6 -4 -8 -11 -5 -16 4 -5 2 -9 -4 -9 -5 0 -16 -3 -25 -6 -11 -4 -16 0
-16 14 0 24 -55 41 -73 23 -6 -6 -21 -11 -34 -11 l-23 0 0 -385 0 -385 265 0
265 0 0 78 c0 60 5 88 24 128 13 28 27 75 31 105 10 84 24 129 57 194 27 52
32 75 41 185 5 69 11 127 13 129 2 2 15 -8 29 -23 14 -15 25 -23 25 -19 0 5
-6 15 -12 22 -11 11 -10 13 5 7 10 -3 27 -6 38 -6 13 0 18 -6 16 -21 -1 -12 5
-24 13 -26 13 -4 13 -3 0 6 -8 5 -12 12 -9 16 3 3 14 -4 24 -15 11 -12 13 -20
6 -20 -7 0 -10 -4 -7 -9 3 -5 -1 -12 -9 -15 -10 -4 -20 3 -27 19 -6 14 -15 25
-20 25 -13 0 -10 -9 17 -44 l25 -33 -20 -24 c-11 -13 -30 -34 -42 -47 -25 -27
-19 -39 11 -20 35 21 46 -3 17 -37 -14 -16 -23 -32 -20 -36 2 -4 -1 -9 -7 -11
-5 -2 -12 -15 -14 -28 -2 -14 -6 -46 -10 -72 -6 -34 -4 -48 4 -48 6 0 11 -6
11 -12 0 -7 21 -32 48 -56 26 -23 61 -56 77 -72 17 -17 38 -30 47 -30 21 0 33
-17 16 -22 -7 -3 2 -5 20 -5 19 0 31 5 29 11 -3 6 -9 10 -15 9 -6 -2 -9 4 -6
12 4 8 13 15 21 15 8 0 11 -5 7 -11 -4 -7 -1 -10 7 -7 7 2 24 -1 37 -8 15 -7
35 -9 57 -4 30 7 41 3 79 -26 34 -26 43 -29 42 -16 -1 13 8 17 39 18 22 0 42
-2 45 -5 3 -3 15 -12 27 -18 19 -11 21 -10 17 2 -4 8 -14 15 -23 16 -9 0 -11
3 -4 5 6 3 26 -2 44 -12 30 -15 34 -15 44 -1 9 12 14 14 23 5 9 -9 15 -8 25 6
13 17 15 17 45 2 36 -18 42 -19 42 -7 0 5 -9 11 -20 13 -12 2 -21 8 -21 13 0
13 36 18 66 11 21 -5 23 -9 14 -38 -11 -40 -11 -38 1 -38 13 0 38 52 33 70 -3
10 0 9 7 -3 6 -9 8 -22 5 -28 -4 -5 -1 -17 7 -26 11 -14 11 -16 -4 -10 -12 4
-15 2 -11 -9 4 -11 14 -13 37 -9 l31 6 -29 -15 c-15 -9 -32 -13 -37 -10 -5 3
-9 0 -9 -5 0 -6 5 -11 10 -11 6 0 10 -7 10 -16 0 -8 6 -22 14 -30 16 -16 51
-19 41 -4 -3 6 6 15 21 20 22 9 30 7 46 -10 16 -17 31 -20 105 -20 48 0 84 2
82 4 -2 1 -29 16 -59 33 -223 121 -246 137 -241 167 1 5 4 41 7 80 15 183 23
222 18 86 -3 -74 -7 -147 -10 -162 -5 -23 -1 -30 18 -37 13 -5 88 -46 168 -90
l144 -82 165 2 c158 1 166 2 196 25 40 30 45 30 45 -1 0 -16 6 -25 16 -25 8 0
13 4 10 9 -3 5 4 11 15 14 15 4 19 2 15 -9 -4 -10 3 -14 30 -14 l35 0 -22 23
c-87 90 -51 277 52 277 39 0 59 -9 53 -25 -3 -7 3 -16 13 -19 31 -9 92 -11 99
-3 4 4 16 7 26 7 34 0 -4 28 -56 41 -25 6 -46 15 -46 20 0 12 8 12 108 -7 108
-20 142 -32 142 -51 0 -8 9 -17 20 -20 11 -3 20 -9 20 -14 0 -5 12 -6 27 -3
22 6 25 4 20 -9 -3 -9 -2 -19 3 -22 6 -4 10 -32 11 -63 l1 -57 11 55 c7 30 17
55 22 54 18 -2 34 31 28 59 -4 20 -2 27 10 27 8 0 17 5 19 10 2 7 24 8 63 4
44 -6 65 -13 82 -32 23 -25 24 -25 37 -6 8 10 25 19 38 20 13 0 37 2 53 4 68
5 83 1 97 -30 15 -34 50 -49 73 -30 12 10 15 9 15 -8 0 -18 21 -31 57 -36 6 0
28 -16 49 -34 20 -18 43 -31 50 -28 16 6 24 -15 24 -61 0 -30 2 -34 15 -23 12
10 16 9 21 -4 5 -14 26 -16 135 -16 l129 0 0 504 c0 569 8 519 -80 505 -58
-10 -578 -29 -965 -35 -212 -4 -302 -9 -307 -17 -4 -7 -8 -42 -8 -79 l0 -66
-34 2 c-18 2 -53 16 -77 33 -54 37 -239 152 -295 184 l-42 23 -53 -28 c-30
-16 -143 -80 -252 -143 -110 -63 -201 -112 -203 -110 -7 6 64 50 294 181 111
64 208 116 215 116 6 0 32 -14 57 -30 25 -16 49 -30 53 -30 4 0 7 26 6 58 -1
50 5 70 47 157 55 112 84 185 91 230 2 17 12 64 21 105 l18 75 47 3 c39 3 47
6 47 23 0 22 -25 26 -34 4 -7 -18 -66 -21 -66 -2 0 6 12 23 25 36 14 13 25 28
25 33 0 6 7 7 16 4 13 -5 15 -2 11 14 -5 21 0 25 21 12 7 -5 10 -16 6 -25 -3
-10 -1 -17 5 -17 6 0 11 9 11 21 0 38 25 13 27 -27 1 -21 2 -44 2 -49 1 -6 20
-9 44 -8 23 2 36 0 30 -3 -18 -8 -16 -24 2 -24 8 0 15 7 15 15 0 13 4 14 20 5
18 -9 20 -21 20 -95 0 -50 4 -85 10 -85 6 0 11 32 11 73 1 39 2 77 4 82 1 6 3
16 3 23 3 20 77 12 77 -8 0 -11 10 -14 42 -12 38 3 43 1 49 -22 5 -22 9 -24
21 -14 8 7 28 11 43 10 16 -1 31 2 35 8 3 5 14 10 23 10 16 -1 16 -1 0 -11
-25 -14 -11 -39 23 -39 19 0 29 5 29 15 0 8 6 15 13 16 6 0 3 4 -8 9 -17 7
-17 9 -2 9 9 1 17 9 18 19 0 12 3 10 10 -7 5 -13 12 -94 15 -180 4 -86 8 -158
10 -160 2 -2 4 84 4 193 l0 197 43 -3 c44 -3 44 -2 46 -70 l1 -38 64 0 c36 0
68 -5 71 -10 4 -6 14 -8 23 -6 20 7 280 9 340 3 23 -2 42 0 42 4 0 5 -7 9 -15
9 -8 0 -15 5 -15 10 0 6 6 10 14 10 8 0 17 4 20 8 5 8 -118 6 -141 -2 -6 -3
-14 1 -17 9 -3 10 7 16 38 20 23 4 49 6 57 4 8 -1 27 1 43 6 20 5 31 4 37 -6
7 -11 9 -10 9 4 0 19 26 23 33 5 3 -10 7 -10 20 1 10 7 17 10 18 5 0 -5 4 1 9
14 18 44 30 22 30 -55 0 -43 5 -85 10 -93 12 -18 13 -8 11 98 0 41 4 72 9 72
7 0 10 265 10 743 l0 742 -687 0 c-643 -1 -688 -2 -691 -18 -5 -24 -22 -11
-22 17 0 13 -10 45 -22 72 -13 27 -23 54 -24 59 0 6 -6 22 -12 36 -6 15 -12
35 -14 45 -2 11 -18 43 -35 72 -18 29 -33 56 -33 61 0 5 -7 14 -16 22 -9 7
-30 40 -47 72 -55 104 -58 108 -75 115 -27 10 -44 31 -36 44 5 8 2 9 -9 5 -10
-3 -17 -3 -17 2 0 4 -20 16 -45 27 -37 15 -42 20 -28 26 15 6 13 7 -7 7 -42
-2 -51 1 -45 12 4 6 14 8 22 5 9 -4 13 -1 11 6 -3 7 -13 15 -23 17 -32 6 -97
54 -84 62 16 9 2 29 -20 29 -10 0 -25 7 -32 16 -12 15 -11 16 11 10 19 -6 21
-5 10 3 -10 7 -284 11 -852 11 l-838 0 0 -29z m95 -261 c-3 -5 -15 -10 -26
-10 -11 0 -17 5 -14 10 3 6 15 10 26 10 11 0 17 -4 14 -10z m-15 -44 c0 -2 -7
-9 -15 -16 -13 -11 -14 -10 -9 4 5 14 24 23 24 12z m-60 -139 c0 -7 -9 -13
-20 -14 -22 -2 -27 12 -7 20 21 9 27 8 27 -6z m210 -77 c0 -5 -5 -10 -11 -10
-5 0 -7 5 -4 10 3 6 8 10 11 10 2 0 4 -4 4 -10z m286 -16 c-3 -9 -12 -14 -21
-10 -8 3 -15 1 -15 -4 0 -11 -40 -34 -47 -27 -3 3 14 19 38 36 44 32 56 34 45
5z m-312 -54 c-2 -22 -11 -54 -20 -71 -11 -22 -12 -30 -3 -27 7 2 17 18 23 34
8 20 17 29 29 26 28 -6 20 -26 -23 -52 -22 -13 -42 -30 -44 -37 -6 -14 6 -18
17 -6 4 3 35 7 70 7 51 1 61 -1 51 -11 -7 -7 -20 -13 -30 -13 -29 0 -10 -9 29
-14 20 -3 39 -1 42 4 4 6 19 10 35 10 24 0 28 3 23 18 -4 9 -11 20 -17 24 -7
5 -4 8 7 8 9 0 17 4 17 8 0 16 63 72 81 72 11 0 19 5 19 10 0 19 22 10 44 -17
11 -15 21 -41 21 -58 0 -26 3 -30 28 -30 18 1 26 -3 23 -12 -3 -8 2 -13 14
-13 11 0 20 -7 20 -15 0 -9 9 -15 21 -15 14 0 19 5 16 14 -4 9 2 12 16 11 12
-1 28 -3 35 -4 6 0 12 -6 12 -12 0 -6 -7 -8 -16 -5 -32 12 -35 -7 -3 -26 22
-14 35 -16 42 -9 15 15 67 14 68 -1 0 -8 3 -7 6 2 3 8 23 32 44 52 44 41 47
48 19 48 -18 0 -18 1 -2 30 9 16 23 30 30 30 6 0 12 5 12 10 0 6 9 10 19 10
11 0 21 5 23 12 2 6 14 13 27 15 19 3 22 0 18 -17 -3 -13 1 -21 13 -25 10 -3
21 -12 24 -20 3 -8 12 -12 21 -9 17 7 21 -11 5 -21 -15 -9 -12 -25 4 -19 7 3
16 -2 19 -10 4 -9 14 -16 24 -16 10 0 27 -7 37 -15 11 -8 37 -15 57 -15 21 0
39 -5 42 -12 3 -10 7 -10 18 -1 25 21 129 -13 114 -37 -8 -13 15 -23 56 -25
22 -1 46 -11 60 -23 l23 -22 -22 0 c-12 0 -22 -4 -22 -10 0 -5 14 -10 30 -10
25 0 30 -4 30 -25 0 -14 5 -25 12 -25 6 0 9 -2 7 -5 -3 -2 -20 0 -38 5 -23 6
-40 6 -54 -2 -12 -6 -36 -11 -54 -10 -18 1 -35 -3 -38 -8 -3 -6 -30 -10 -58
-10 -33 0 -68 -8 -92 -20 -30 -15 -41 -17 -47 -7 -6 9 -8 9 -8 0 0 -7 -8 -13
-18 -13 -28 0 -40 -37 -30 -86 9 -41 8 -43 -54 -124 -77 -101 -101 -120 -155
-122 -26 -1 -43 -6 -43 -13 0 -9 -12 -10 -46 -4 -41 8 -91 28 -70 29 5 0 3 7
-4 15 -15 18 -10 18 24 5 14 -5 26 -6 26 -1 0 11 -80 85 -108 100 -12 6 -22
21 -22 32 0 16 -5 19 -22 15 -13 -3 -17 -3 -11 0 17 7 17 41 1 47 -7 2 -10 8
-6 12 4 4 14 2 22 -5 33 -27 35 -2 3 35 -34 39 -63 43 -40 5 10 -14 9 -19 -2
-24 -8 -3 -14 -2 -14 2 4 26 -5 41 -28 50 -49 18 -222 44 -273 40 -28 -1 -51
1 -53 6 -2 5 -25 2 -53 -8 -27 -9 -57 -18 -66 -19 -23 -3 -97 -85 -105 -117
-3 -14 -9 -29 -13 -35 -3 -5 -7 -21 -8 -35 -5 -63 -7 -65 -53 -67 -41 -1 -42
-1 -9 5 l35 7 6 145 c7 167 21 226 89 385 85 198 102 223 94 145z m226 -30 c0
-5 -2 -10 -4 -10 -3 0 -8 5 -11 10 -3 6 -1 10 4 10 6 0 11 -4 11 -10z m272
-32 c-7 -7 -12 -8 -12 -2 0 14 12 26 19 19 2 -3 -1 -11 -7 -17z m-398 -23 c-4
-8 -13 -15 -21 -15 -13 0 -13 3 -3 15 7 8 16 15 21 15 5 0 6 -7 3 -15z m436 5
c0 -5 -4 -10 -10 -10 -5 0 -10 5 -10 10 0 6 5 10 10 10 6 0 10 -4 10 -10z
m760 -104 c0 -11 -19 -15 -25 -6 -3 5 1 10 9 10 9 0 16 -2 16 -4z m104 -112
c10 -25 7 -46 -5 -39 -6 4 -8 13 -5 21 3 8 1 14 -4 14 -6 0 -10 5 -10 10 0 16
17 12 24 -6z m26 -245 c0 -5 5 -7 10 -4 6 4 16 2 23 -4 7 -5 25 -12 41 -15 30
-5 48 -16 28 -16 -7 0 -12 -7 -12 -16 0 -11 5 -14 17 -10 10 4 14 3 9 -1 -4
-4 -30 -9 -57 -10 -76 -3 -81 -4 -134 -18 -76 -20 -165 -26 -165 -12 0 17 29
57 42 57 5 0 23 9 39 21 17 12 51 23 77 25 25 3 48 7 51 9 9 9 31 5 31 -6z
m970 -29 c0 -11 -7 -20 -15 -20 -27 0 -18 30 13 39 1 1 2 -8 2 -19z m-2196 1
c19 -7 19 -8 0 -15 -10 -4 -20 -3 -22 3 -2 5 -9 8 -17 5 -7 -3 -16 -1 -20 5
-7 13 30 14 59 2z m1984 -69 c2 -12 -1 -22 -6 -22 -6 0 -17 -3 -26 -6 -12 -5
-16 0 -16 18 0 14 3 28 7 32 14 13 38 1 41 -22z m42 8 c0 -5 -4 -10 -10 -10
-5 0 -10 5 -10 10 0 6 5 10 10 10 6 0 10 -4 10 -10z m60 -14 c0 -16 -18 -31
-27 -22 -8 8 5 36 17 36 5 0 10 -6 10 -14z m-1950 -42 c23 -11 21 -12 -28 -10
-49 3 -88 16 -46 16 16 0 17 2 4 10 -21 15 37 1 70 -16z m-495 -42 c6 -4 10
-23 10 -42 0 -26 -4 -34 -15 -32 -25 6 -36 22 -21 31 11 7 11 9 0 13 -7 2 -10
11 -6 21 7 18 16 21 32 9z m335 -11 c0 -11 -39 -25 -47 -18 -3 3 -2 10 2 16 8
13 45 15 45 2z m-421 -32 c49 -45 27 -60 -36 -24 -61 36 -60 34 -43 45 25 16
43 11 79 -21z m481 21 c-20 -13 -40 -13 -40 0 0 6 12 10 28 10 21 0 24 -2 12
-10z m143 3 c-7 -2 -19 -2 -25 0 -7 3 -2 5 12 5 14 0 19 -2 13 -5z m54 -9 c-3
-3 -12 -4 -19 -1 -8 3 -5 6 6 6 11 1 17 -2 13 -5z m-467 -62 c0 -30 -8 -45
-20 -37 -9 6 0 65 11 65 5 0 9 -13 9 -28z m1298 -21 c11 -6 10 -15 -5 -44 -18
-38 -38 -44 -56 -17 -7 12 -3 23 14 43 27 30 28 30 47 18z m1219 -7 c-3 -3
-12 -4 -19 -1 -8 3 -5 6 6 6 11 1 17 -2 13 -5z m334 -25 c28 -33 26 -113 -3
-133 -27 -19 -135 -21 -159 -3 -22 17 -30 66 -16 100 25 60 137 83 178 36z
m-2569 -42 c-4 -48 -4 -48 -35 -41 -33 7 -63 22 -84 41 -15 13 3 23 41 23 12
0 26 4 32 9 7 7 46 20 50 17 0 -1 -1 -23 -4 -49z m515 47 c-3 -3 -12 -4 -19
-1 -8 3 -5 6 6 6 11 1 17 -2 13 -5z m1220 -101 c-2 -21 -4 -6 -4 32 0 39 2 55
4 38 2 -18 2 -50 0 -70z m-1670 81 c-3 -3 -12 -4 -19 -1 -8 3 -5 6 6 6 11 1
17 -2 13 -5z m2274 -27 c-1 -4 -1 -14 -1 -22 0 -8 -4 -15 -9 -15 -12 0 -23 29
-15 41 6 11 26 8 25 -4z m-2868 -54 c3 -5 8 -23 12 -40 5 -25 3 -33 -8 -33
-17 0 -42 54 -32 69 7 13 22 14 28 4z m2504 -27 c-4 -9 -11 -16 -17 -16 -11 0
-14 33 -3 44 11 10 26 -11 20 -28z m-2349 8 c28 -2 33 -4 28 -13 -8 -12 17
-80 29 -81 6 0 10 -19 10 -42 0 -42 1 -43 35 -43 39 -1 139 -43 104 -44 -20
-1 -154 14 -221 25 -31 5 -33 8 -33 44 0 29 -4 40 -15 40 -8 0 -15 9 -15 19 0
11 -3 26 -6 35 -5 12 0 16 19 16 20 0 26 6 31 33 4 17 10 28 14 22 4 -5 13
-10 20 -11z m118 -48 c2 -14 0 -26 -5 -26 -13 0 -24 37 -16 51 9 14 15 7 21
-25z m1620 -3 c-4 -25 -23 -27 -29 -3 -4 15 0 20 13 20 11 0 17 -6 16 -17z
m-422 1 c25 -10 19 -22 -21 -42 -21 -10 -37 -24 -35 -30 1 -7 -4 -12 -10 -12
-7 0 -26 -7 -42 -15 -22 -12 -27 -12 -23 -2 3 9 -3 13 -16 13 -23 -1 -30 28
-13 52 5 7 4 12 -2 12 -6 0 -13 -4 -16 -9 -3 -5 -15 -7 -26 -4 -11 3 -17 10
-14 15 4 5 15 8 25 5 10 -3 22 -1 25 5 6 9 31 6 68 -8 12 -5 15 -2 10 10 -5
13 1 16 34 16 22 0 47 -3 56 -6z m64 -31 c-2 -10 -11 -19 -20 -21 -12 -2 -15
2 -11 17 7 25 36 28 31 4z m-280 -57 c37 -77 67 -102 135 -111 76 -11 96 -27
24 -21 -77 6 -126 33 -159 87 -25 40 -47 109 -36 109 3 0 19 -29 36 -64z
m1242 3 c0 -40 -4 -58 -11 -54 -9 6 -11 90 -2 108 10 17 13 3 13 -54z m-1202
6 c0 -32 -10 -32 -25 0 -10 22 -9 25 7 25 12 0 18 -8 18 -25z m182 5 c0 -20
-44 -49 -56 -38 -8 9 18 47 36 52 8 2 16 4 18 5 1 0 2 -8 2 -19z m-982 -45
c-3 -3 -9 2 -12 12 -6 14 -5 15 5 6 7 -7 10 -15 7 -18z m2002 -77 c0 -25 -4
-38 -9 -32 -8 8 -4 74 5 74 2 0 4 -19 4 -42z m-1007 5 c-7 -2 -19 -2 -25 0 -7
3 -2 5 12 5 14 0 19 -2 13 -5z m50 0 c-7 -2 -19 -2 -25 0 -7 3 -2 5 12 5 14 0
19 -2 13 -5z m790 -83 c-3 -12 -8 -19 -11 -16 -5 6 5 36 12 36 2 0 2 -9 -1
-20z m-873 -40 c12 -12 25 -18 30 -15 6 4 10 1 10 -4 0 -6 13 -11 29 -11 23 0
30 -6 37 -32 7 -24 18 -36 40 -43 16 -5 47 -27 67 -47 21 -21 43 -38 49 -38 6
0 4 -8 -5 -18 -23 -25 -22 -29 18 -48 36 -17 43 -32 24 -51 -8 -8 -20 -8 -35
-3 -30 12 -31 3 -2 -21 21 -19 21 -20 2 -33 -12 -9 -23 -11 -28 -5 -6 5 -18 9
-27 9 -9 0 -35 18 -57 40 -22 22 -44 40 -49 40 -5 0 -10 10 -10 22 -1 13 -7
24 -14 27 -6 2 -28 21 -48 43 -20 22 -45 50 -56 62 -20 21 -23 64 -10 124 7
27 10 27 35 2z m910 -208 c0 -38 0 -38 -35 -34 -32 4 -35 7 -35 38 0 32 2 34
35 34 34 0 35 -1 35 -38z m-1422 -1 c9 -5 33 -16 52 -25 35 -15 32 -20 -15
-28 -18 -4 -17 -6 9 -19 17 -10 24 -19 18 -23 -6 -4 -9 -13 -6 -21 4 -9 -3
-16 -20 -21 -24 -6 -24 -7 -10 -30 18 -26 11 -46 -12 -37 -10 4 -15 1 -14 -8
1 -8 1 -23 0 -34 -2 -17 -3 -16 -9 5 -4 14 -3 31 2 38 5 7 6 16 2 20 -4 4 -10
1 -12 -5 -10 -27 -25 -12 -19 17 3 17 1 30 -4 30 -6 0 -10 -7 -10 -15 0 -8 -7
-15 -15 -15 -8 0 -15 6 -15 14 0 8 -6 17 -12 20 -10 5 -10 7 -1 12 7 3 15 21
19 40 3 19 10 37 15 40 5 3 9 14 9 24 0 15 7 23 28 29 1 1 10 -3 20 -8z m82
-141 c-8 -5 -19 -10 -25 -10 -5 0 -3 5 5 10 8 5 20 10 25 10 6 0 3 -5 -5 -10z
m1830 -4 c0 -9 -30 -14 -35 -6 -4 6 3 10 14 10 12 0 21 -2 21 -4z m600 0 c0
-3 -4 -8 -10 -11 -5 -3 -10 -1 -10 4 0 6 5 11 10 11 6 0 10 -2 10 -4z m-354
-34 c-22 -5 -30 3 -21 18 5 8 11 7 22 -2 15 -12 14 -13 -1 -16z m301 21 c-9
-2 -15 -9 -12 -14 4 -5 -6 -8 -22 -8 -17 1 -21 3 -10 6 9 2 17 9 17 14 0 5 10
8 23 8 17 -1 18 -2 4 -6z m-184 -33 c14 -11 31 -21 39 -21 7 -1 -16 -5 -51
-10 -71 -9 -119 3 -57 15 20 4 36 11 36 17 0 6 -4 8 -9 4 -5 -3 -12 -1 -16 5
-11 18 32 11 58 -10z m90 13 c-13 -2 -35 -2 -50 0 -16 2 -5 4 22 4 28 0 40 -2
28 -4z m57 -39 c0 -2 -9 -4 -20 -4 -11 0 -20 4 -20 9 0 5 9 7 20 4 11 -3 20
-7 20 -9z m-270 -4 c13 -8 13 -10 -2 -10 -9 0 -20 5 -23 10 -8 13 5 13 25 0z
m-2348 -247 c15 -7 29 -13 30 -12 6 4 48 -26 48 -33 0 -13 -35 -9 -58 8 -12 8
-23 14 -23 12 -10 -26 -4 -59 12 -74 21 -19 26 -44 8 -44 -5 0 -8 -4 -5 -8 9
-14 -33 -52 -57 -52 -18 0 -19 2 -7 11 12 8 9 9 -10 4 -14 -4 -46 -9 -72 -12
l-48 -6 0 56 c0 42 4 58 16 65 10 5 19 25 20 43 7 66 67 83 146 42z m158 -203
c-18 -11 -24 -6 -16 16 5 14 9 15 19 5 9 -9 9 -14 -3 -21z m-76 -129 c10 -15
-19 -42 -37 -35 -17 6 -23 25 -10 37 9 10 41 9 47 -2z m-69 -101 c3 -5 1 -10
-4 -10 -6 0 -11 5 -11 10 0 6 2 10 4 10 3 0 8 -4 11 -10z m-628 -132 c-3 -7
-5 -2 -5 12 0 14 2 19 5 13 2 -7 2 -19 0 -25z m473 1 c0 -5 -9 -9 -20 -9 -11
0 -20 5 -20 11 0 5 -5 7 -12 3 -6 -4 -8 -3 -5 3 8 12 57 5 57 -8z m807 -116
c-3 -10 -5 -4 -5 12 0 17 2 24 5 18 2 -7 2 -21 0 -30z m600 -4 c16 -16 5 -39
-18 -39 -12 0 -19 7 -19 18 0 31 17 41 37 21z m-327 -33 c0 -18 -3 -61 -6 -95
-6 -55 -9 -61 -29 -61 -23 0 -23 2 -18 83 6 101 7 107 33 107 16 0 20 -6 20
-34z m-1122 2 c-6 -18 -28 -21 -28 -4 0 9 7 16 16 16 9 0 14 -5 12 -12z m1038
-30 c0 -21 3 -41 7 -45 12 -11 8 -60 -5 -71 -7 -5 -35 -12 -63 -13 l-50 -4 -3
45 c-2 25 -1 64 3 88 l6 43 52 -3 52 -3 1 -37z m231 -12 c1 -1 -2 -26 -5 -56
l-7 -55 -52 -3 c-44 -2 -54 1 -67 20 -19 27 -12 66 17 91 16 14 30 16 66 11
25 -4 47 -7 48 -8z m123 2 c0 -7 -9 -24 -20 -38 -20 -26 -25 -41 -12 -39 20 3
32 -2 32 -15 0 -14 -92 -32 -111 -21 -5 4 -1 18 11 35 24 33 26 50 5 50 -18 0
-20 26 -2 33 26 11 97 7 97 -5z m58 -45 c-3 -51 -6 -58 -25 -61 -20 -3 -23 1
-23 35 0 58 10 83 32 83 17 0 19 -6 16 -57z m132 42 c6 -7 10 -33 8 -57 -2
-36 -7 -44 -25 -46 -21 -3 -23 1 -23 38 0 53 -24 50 -28 -3 -3 -29 -7 -37 -23
-37 -10 0 -19 6 -20 13 -2 23 3 92 7 98 8 13 92 8 104 -6z m124 0 c-1 -5 16
-22 37 -37 24 -17 39 -23 40 -15 3 32 5 37 11 37 20 -1 48 -17 95 -58 44 -36
51 -47 43 -62 -9 -17 -4 -19 78 -17 48 1 94 -3 102 -8 8 -5 23 -8 33 -7 22 4
22 -11 -1 -23 -47 -26 -72 -34 -134 -45 -41 -7 -73 -8 -85 -3 -10 5 -27 9 -38
9 -11 -1 -26 6 -33 14 -8 8 -11 10 -8 4 3 -7 -6 -14 -22 -17 -29 -6 -83 27
-102 62 -8 16 -17 18 -50 14 -25 -4 -46 -1 -55 7 -26 21 -17 33 19 27 25 -4
39 -1 48 10 11 14 9 15 -18 9 -39 -9 -64 13 -64 54 0 41 25 62 69 58 20 -2 35
-7 35 -13z m-867 -62 c-3 -10 -5 -2 -5 17 0 19 2 27 5 18 2 -10 2 -26 0 -35z
m330 -79 c4 -10 -1 -22 -10 -29 -21 -15 -21 -25 0 -40 14 -10 21 -10 38 0 16
10 70 13 105 6 3 -1 3 -27 0 -58 l-5 -58 -52 -2 c-46 -2 -55 0 -69 22 -9 15
-13 32 -9 45 6 20 5 21 -14 11 -15 -9 -21 -21 -21 -47 0 -31 -3 -35 -22 -32
-20 3 -23 8 -20 40 1 20 -1 39 -7 42 -12 8 16 88 36 104 23 17 42 15 50 -4z
m310 -34 c3 -11 9 -20 14 -20 15 0 10 -30 -6 -36 -10 -4 -15 -20 -15 -45 0
-31 -4 -39 -19 -39 -15 0 -19 10 -24 56 -3 31 -2 67 3 80 11 29 40 32 47 4z
m-72 -30 c3 -6 -4 -14 -16 -19 l-23 -8 22 -12 c48 -26 4 -89 -52 -75 -36 9
-31 40 4 36 l25 -3 -22 16 c-27 19 -30 50 -5 64 22 13 59 14 67 1z m142 -66
c3 -8 -2 -23 -11 -32 -15 -15 -17 -15 -33 0 -13 14 -14 20 -3 32 16 20 39 20
47 0z m206 -1 c-7 -2 -19 -2 -25 0 -7 3 -2 5 12 5 14 0 19 -2 13 -5z m-1638
-113 c3 -6 -1 -7 -9 -4 -18 7 -21 14 -7 14 6 0 13 -4 16 -10z m725 -145 c0 -8
-4 -15 -10 -15 -5 0 -10 7 -10 15 0 8 5 15 10 15 6 0 10 -7 10 -15z m665 -25
c-3 -5 -11 -10 -16 -10 -6 0 -7 5 -4 10 3 6 11 10 16 10 6 0 7 -4 4 -10z"/>
<path d="M1315 3310 c-3 -5 -1 -10 4 -10 6 0 11 5 11 10 0 6 -2 10 -4 10 -3 0
-8 -4 -11 -10z"/>
<path d="M1710 3170 c0 -5 5 -10 10 -10 6 0 10 5 10 10 0 6 -4 10 -10 10 -5 0
-10 -4 -10 -10z"/>
<path d="M780 3150 c0 -5 5 -10 10 -10 6 0 10 5 10 10 0 6 -4 10 -10 10 -5 0
-10 -4 -10 -10z"/>
<path d="M1078 3143 c6 -2 18 -2 25 0 6 3 1 5 -13 5 -14 0 -19 -2 -12 -5z"/>
<path d="M1338 3123 c7 -3 16 -2 19 1 4 3 -2 6 -13 5 -11 0 -14 -3 -6 -6z"/>
<path d="M1020 3110 c0 -5 5 -10 10 -10 6 0 10 5 10 10 0 6 -4 10 -10 10 -5 0
-10 -4 -10 -10z"/>
<path d="M1855 3060 c-4 -6 7 -10 25 -10 18 0 29 4 25 10 -3 6 -15 10 -25 10
-10 0 -22 -4 -25 -10z"/>
<path d="M1630 2270 c-8 -5 -10 -10 -5 -10 6 0 17 5 25 10 8 5 11 10 5 10 -5
0 -17 -5 -25 -10z"/>
<path d="M2601 1834 c0 -11 3 -14 6 -6 3 7 2 16 -1 19 -3 4 -6 -2 -5 -13z"/>
<path d="M920 1320 c0 -5 5 -10 10 -10 6 0 10 5 10 10 0 6 -4 10 -10 10 -5 0
-10 -4 -10 -10z"/>
<path d="M1800 600 c0 -5 5 -10 10 -10 6 0 10 5 10 10 0 6 -4 10 -10 10 -5 0
-10 -4 -10 -10z"/>
<path d="M1800 535 c0 -8 7 -15 15 -15 8 0 15 7 15 15 0 8 -7 15 -15 15 -8 0
-15 -7 -15 -15z"/>
<path d="M2010 556 c-13 -17 -6 -36 15 -36 19 0 26 27 11 39 -10 8 -17 7 -26
-3z"/>
<path d="M2474 565 c-4 -9 -2 -21 4 -27 15 -15 44 -1 40 19 -4 23 -36 29 -44
8z"/>
<path d="M2615 460 c3 -5 23 -10 43 -10 28 0 33 3 22 10 -20 13 -73 13 -65 0z"/>
<path d="M2050 346 c-13 -17 -6 -36 15 -36 19 0 26 27 11 39 -10 8 -17 7 -26
-3z"/>
<path d="M2620 3941 c0 -58 1 -59 31 -65 17 -3 44 -6 59 -6 25 0 29 -5 35 -40
4 -22 4 -53 0 -70 -4 -16 -4 -39 0 -50 12 -39 25 -8 25 60 0 38 4 72 10 75 6
3 7 -1 4 -10 -5 -11 -2 -14 10 -9 9 3 14 10 11 14 -9 15 29 20 65 10 44 -13
91 -13 71 -1 -9 6 -5 9 14 9 20 0 24 -3 14 -10 -10 -7 -6 -8 14 -5 15 2 27 1
27 -4 0 -4 17 -5 38 -3 20 3 45 5 54 5 10 0 21 5 24 11 4 6 3 8 -2 5 -6 -3
-16 -2 -24 4 -11 6 -6 9 18 9 20 0 42 -8 55 -21 19 -18 22 -18 25 -4 2 9 11
15 19 13 13 -2 15 -20 14 -105 -2 -112 7 -223 19 -223 4 0 8 6 7 13 -3 89 5
307 12 307 5 0 11 -9 14 -20 4 -16 10 -19 29 -12 12 5 39 8 58 7 32 0 35 -3
32 -28 -2 -20 2 -27 15 -28 11 0 13 -3 6 -6 -21 -8 -15 -39 7 -39 13 0 20 7
20 19 0 14 5 17 23 13 15 -4 13 -2 -5 6 -40 17 -38 40 2 26 17 -5 38 -7 46 -4
9 4 23 1 31 -5 11 -10 11 -15 -3 -30 -16 -18 -16 -19 4 -19 15 0 22 6 22 20 0
18 3 19 21 9 12 -6 19 -7 15 -1 -3 5 1 12 9 16 15 5 19 -5 16 -32 -1 -8 3 -20
9 -27 7 -8 9 -19 5 -25 -3 -5 -1 -10 4 -10 11 0 15 26 12 63 -1 9 4 17 11 18
7 0 4 4 -7 9 -14 6 -2 9 45 11 l65 2 -50 7 c-42 6 -36 7 35 6 l85 -1 3 -36 c2
-24 -3 -42 -13 -53 -9 -9 -13 -16 -8 -16 4 0 1 -5 -7 -10 -13 -9 -13 -12 2
-24 16 -12 16 -14 -7 -36 -33 -31 -32 -50 3 -50 21 0 24 -2 12 -10 -13 -8 -13
-13 3 -40 10 -16 15 -35 12 -40 -3 -6 2 -10 12 -10 11 0 24 -5 30 -11 5 -5 22
-7 37 -3 24 6 26 10 26 60 0 30 5 54 10 54 6 0 10 -9 10 -20 0 -11 7 -20 15
-20 11 0 15 13 15 53 0 29 -4 57 -10 63 -6 6 -7 44 0 109 5 55 10 133 10 173
l0 72 -690 0 -690 0 0 -59z m1352 -216 c-3 -87 -5 -94 -21 -86 -14 8 -17 20
-14 60 3 28 0 58 -5 67 -12 21 5 54 28 54 13 0 14 -15 12 -95z"/>
<path d="M2798 3776 c-10 -14 -18 -41 -18 -60 0 -20 -5 -36 -10 -36 -6 0 -15
-10 -20 -22 -7 -18 -9 -19 -9 -5 -1 9 -6 17 -11 17 -6 0 -15 10 -20 23 -7 16
-9 2 -7 -53 2 -64 -1 -75 -15 -78 -14 -3 -17 -12 -15 -38 2 -34 20 -46 31 -21
5 9 8 8 13 -3 5 -10 11 -3 19 25 l12 40 8 -45 c4 -25 10 -38 12 -30 5 15 42
49 54 50 4 0 8 -12 10 -27 3 -27 4 -28 63 -25 81 3 91 7 74 29 -12 14 -12 16
1 11 23 -9 13 63 -11 80 -11 7 -19 21 -19 31 0 16 7 17 49 13 27 -2 51 0 55 6
6 10 -72 34 -86 26 -4 -3 -8 2 -8 10 0 10 -9 16 -24 16 -14 0 -27 4 -31 10 -3
5 -12 7 -20 4 -12 -5 -13 -1 -4 26 13 36 12 38 -27 45 -23 4 -33 0 -46 -19z
m-38 -171 c0 -8 -4 -17 -10 -20 -6 -4 -10 5 -10 20 0 15 4 24 10 20 6 -3 10
-12 10 -20z"/>
<path d="M3790 3779 c0 -5 5 -7 10 -4 6 3 10 8 10 11 0 2 -4 4 -10 4 -5 0 -10
-5 -10 -11z"/>
<path d="M3590 3699 c0 -5 5 -7 10 -4 6 3 10 8 10 11 0 2 -4 4 -10 4 -5 0 -10
-5 -10 -11z"/>
<path d="M3120 3602 c0 -6 -27 -14 -60 -18 -64 -7 -72 -14 -39 -38 12 -8 19
-18 16 -23 -3 -4 8 -8 24 -9 18 -1 29 4 29 12 0 8 6 14 14 14 13 0 31 58 21
68 -3 3 -5 0 -5 -6z"/>
<path d="M3175 3520 c3 -5 8 -10 11 -10 2 0 4 5 4 10 0 6 -5 10 -11 10 -5 0
-7 -4 -4 -10z"/>
<path d="M3241 3484 c0 -11 3 -14 6 -6 3 7 2 16 -1 19 -3 4 -6 -2 -5 -13z"/>
<path d="M3181 3374 c0 -11 3 -14 6 -6 3 7 2 16 -1 19 -3 4 -6 -2 -5 -13z"/>
<path d="M3181 3194 c0 -11 3 -14 6 -6 3 7 2 16 -1 19 -3 4 -6 -2 -5 -13z"/>
<path d="M965 2231 c-3 -5 0 -13 6 -17 7 -4 9 -3 5 4 -3 5 0 13 6 15 9 4 10 6
1 6 -6 1 -14 -3 -18 -8z"/>
<path d="M1004 2200 c-5 -5 -27 -14 -49 -20 l-40 -10 39 5 c22 2 47 11 55 20
8 8 13 15 10 15 -3 0 -9 -4 -15 -10z"/>
<path d="M788 2123 c7 -3 16 -2 19 1 4 3 -2 6 -13 5 -11 0 -14 -3 -6 -6z"/>
<path d="M677 2113 c-13 -13 -7 -21 13 -16 11 3 17 9 14 14 -6 11 -18 12 -27
2z"/>
<path d="M1126 2029 c-11 -10 -17 -21 -14 -24 2 -3 15 6 28 20 27 29 14 33
-14 4z"/>
<path d="M770 2010 c0 -5 4 -10 9 -10 6 0 13 5 16 10 3 6 -1 10 -9 10 -9 0
-16 -4 -16 -10z"/>
<path d="M240 1890 c0 -19 3 -21 12 -12 9 9 9 15 0 24 -9 9 -12 7 -12 -12z"/>
<path d="M160 1620 c0 -5 5 -10 10 -10 6 0 10 5 10 10 0 6 -4 10 -10 10 -5 0
-10 -4 -10 -10z"/>
<path d="M2691 1584 c0 -11 3 -14 6 -6 3 7 2 16 -1 19 -3 4 -6 -2 -5 -13z"/>
<path d="M3007 1519 c15 -5 21 -14 17 -24 -5 -12 1 -15 29 -15 38 0 67 23 46
36 -7 4 -15 2 -17 -4 -2 -7 -10 -12 -18 -12 -7 0 -11 6 -8 13 3 9 -7 13 -33
14 -31 1 -34 -1 -16 -8z"/>
<path d="M3280 1501 c0 -4 11 -6 25 -3 14 2 25 6 25 8 0 2 -11 4 -25 4 -14 0
-25 -4 -25 -9z"/>
<path d="M3378 1503 c12 -2 30 -2 40 0 9 3 -1 5 -23 4 -22 0 -30 -2 -17 -4z"/>
<path d="M3991 1384 c0 -11 3 -14 6 -6 3 7 2 16 -1 19 -3 4 -6 -2 -5 -13z"/>
<path d="M3680 1339 c0 -5 5 -7 10 -4 6 3 10 8 10 11 0 2 -4 4 -10 4 -5 0 -10
-5 -10 -11z"/>
<path d="M675 1320 c-3 -5 -1 -10 4 -10 6 0 11 5 11 10 0 6 -2 10 -4 10 -3 0
-8 -4 -11 -10z"/>
<path d="M3238 1262 c-2 -15 -1 -38 3 -52 5 -18 7 -10 8 28 1 56 -4 69 -11 24z"/>
<path d="M2553 915 c0 -7 6 -11 14 -8 7 3 13 6 13 8 0 2 -6 5 -13 8 -8 3 -14
-1 -14 -8z"/>
<path d="M200 600 c0 -5 5 -10 11 -10 5 0 7 5 4 10 -3 6 -8 10 -11 10 -2 0 -4
-4 -4 -10z"/>
<path d="M730 186 c0 -10 8 -56 17 -102 17 -80 19 -84 44 -84 l27 0 -22 43
c-13 23 -32 69 -44 102 -12 33 -21 52 -22 41z"/>
</g>
</svg>
