<?xml version="1.0" standalone="no"?>
<!DOCTYPE svg PUBLIC "-//W3C//DTD SVG 20010904//EN"
 "http://www.w3.org/TR/2001/REC-SVG-20010904/DTD/svg10.dtd">
<svg version="1.0" xmlns="http://www.w3.org/2000/svg"
 width="400.000000pt" height="400.000000pt" viewBox="0 0 400.000000 400.000000"
 preserveAspectRatio="xMidYMid meet">
<metadata>
Created by potrace 1.11, written by Peter Selinger 2001-2013
</metadata>
<g transform="translate(0.000000,400.000000) scale(0.100000,-0.100000)"
fill="#000000" stroke="none">
<path d="M360 3976 c0 -22 -5 -25 -55 -31 -46 -6 -55 -11 -55 -27 0 -18 6 -19
58 -16 l57 3 6 -45 c3 -25 11 -56 17 -70 10 -21 12 -15 10 44 -3 68 -2 70 24
77 15 4 53 9 85 10 l58 4 6 -63 c3 -34 9 -65 12 -68 3 -3 19 -3 34 0 29 7 29
8 29 74 l-1 67 55 7 c35 4 57 3 61 -4 4 -6 10 -37 13 -70 9 -78 20 -67 17 17
-1 46 2 67 11 70 7 2 81 9 163 15 83 6 161 12 175 13 21 2 25 -3 31 -36 9 -55
19 -57 19 -4 0 35 4 47 18 50 30 8 -441 6 -503 -3 -33 -4 -64 -3 -70 1 -16 15
-75 11 -75 -5 0 -11 -21 -16 -77 -22 -43 -4 -80 -7 -83 -7 -3 0 -9 10 -15 22
-13 28 -25 27 -25 -3z"/>
<path d="M1580 3979 c0 -11 4 -18 10 -14 5 3 7 12 3 20 -7 21 -13 19 -13 -6z"/>
<path d="M1630 3950 c0 -27 5 -50 10 -50 6 0 10 8 10 17 0 15 2 14 15 -3 18
-24 19 -6 3 47 -17 57 -38 51 -38 -11z"/>
<path d="M1995 3990 c3 -5 8 -10 11 -10 2 0 4 5 4 10 0 6 -5 10 -11 10 -5 0
-7 -4 -4 -10z"/>
<path d="M3376 3868 c9 -166 23 -210 23 -73 1 116 -8 205 -20 205 -5 0 -6 -60
-3 -132z"/>
<path d="M3431 3888 c0 -125 10 -200 22 -180 11 16 -3 292 -14 292 -5 0 -9
-51 -8 -112z"/>
<path d="M3480 3936 c0 -81 10 -156 21 -156 5 0 9 50 9 110 0 91 -3 110 -15
110 -12 0 -15 -14 -15 -64z"/>
<path d="M3539 3996 c-2 -2 -3 -52 -1 -110 3 -89 6 -106 19 -106 14 0 15 10
10 68 -4 37 -7 86 -7 110 0 37 -8 51 -21 38z"/>
<path d="M3593 3894 c2 -58 7 -108 10 -111 16 -16 22 16 19 111 -3 89 -6 106
-19 106 -14 0 -15 -14 -10 -106z"/>
<path d="M3648 3873 c3 -83 11 -147 22 -183 l18 -55 3 80 c1 44 4 64 6 45 3
-19 10 -42 18 -50 7 -8 15 -24 18 -35 7 -31 8 100 0 218 l-6 107 -42 0 -42 0
5 -127z m39 -25 c-2 -24 -4 -5 -4 42 0 47 2 66 4 43 2 -24 2 -62 0 -85z"/>
<path d="M3755 3898 c11 -242 18 -306 39 -368 l21 -65 3 55 c2 30 -2 91 -7
134 -6 44 -10 107 -10 140 l2 61 7 -57 c9 -67 42 -178 53 -178 5 0 6 8 3 18
-2 9 -7 82 -11 162 -7 172 -11 200 -32 200 -13 0 -15 -12 -11 -70 3 -52 0 -70
-9 -70 -9 0 -13 20 -13 70 0 64 -2 70 -20 70 -20 0 -20 -5 -15 -102z"/>
<path d="M3861 3958 c1 -120 16 -260 28 -267 7 -5 12 -10 10 -12 -6 -10 13
-99 22 -105 7 -4 9 36 5 118 -3 83 -2 107 4 73 12 -74 42 -177 49 -170 3 4 5
48 4 98 -1 65 1 82 6 57 6 -23 9 12 10 108 1 117 -1 142 -13 142 -10 0 -16
-13 -19 -37 l-4 -38 -1 38 c-2 30 -6 37 -22 37 -18 0 -20 -7 -21 -92 -2 -93
-4 -89 -15 30 -5 52 -9 62 -25 62 -16 0 -19 -7 -18 -42z m116 -135 c-2 -16 -4
-5 -4 22 0 28 2 40 4 28 2 -13 2 -35 0 -50z"/>
<path d="M3026 3844 c-3 -8 -3 -33 0 -55 6 -36 9 -40 33 -37 14 2 25 6 24 11
-2 4 -3 27 -3 52 0 41 -2 45 -24 45 -13 0 -27 -7 -30 -16z"/>
<path d="M1925 3828 c-99 -11 -321 -65 -352 -85 -13 -9 -63 -22 -110 -30 -97
-15 -153 -37 -200 -77 -67 -56 -228 -333 -240 -411 -3 -22 -20 -62 -38 -90
-19 -27 -46 -88 -60 -135 -15 -47 -30 -91 -34 -98 -5 -12 -117 -80 -266 -161
-83 -46 -111 -66 -188 -140 -61 -58 -67 -62 -68 -40 -1 13 -3 51 -5 84 -2 33
-5 101 -7 150 l-2 90 -93 -1 c-51 -1 -94 -3 -96 -5 -2 -2 4 -76 14 -164 10
-88 21 -200 25 -250 4 -49 13 -104 21 -121 8 -17 15 -51 14 -75 0 -24 4 -66 9
-94 5 -27 10 -106 10 -174 l1 -125 -35 34 c-19 19 -35 42 -35 51 0 16 -33 32
-44 21 -3 -3 -6 -18 -6 -34 0 -43 -27 -78 -61 -78 -22 0 -30 -6 -35 -26 -4
-15 -12 -23 -20 -20 -7 3 -16 1 -19 -4 -4 -6 3 -10 14 -10 12 0 21 -7 21 -15
0 -8 -9 -15 -20 -15 -11 0 -20 -7 -20 -16 0 -11 6 -14 20 -9 14 5 20 2 20 -9
0 -9 -9 -16 -20 -16 -17 0 -20 -7 -20 -49 0 -44 3 -50 22 -53 15 -2 23 -10 24
-23 0 -11 1 -37 2 -58 2 -34 4 -37 21 -27 13 6 17 16 14 31 -5 16 -2 20 13 19
31 -4 44 -1 44 10 0 6 -11 10 -24 10 -13 0 -27 7 -30 16 -11 29 -7 112 7 118
9 5 9 7 0 12 -19 8 -16 28 7 49 11 10 20 13 20 7 0 -6 -6 -13 -13 -15 -6 -3
-2 -6 9 -6 25 -1 41 29 22 40 -18 11 -9 15 50 23 33 4 52 3 52 -4 0 -5 7 -10
16 -10 8 0 13 4 10 9 -6 10 26 21 61 21 29 0 31 -11 32 -174 1 -84 6 -145 13
-153 6 -8 7 -13 0 -13 -5 0 -12 -8 -14 -18 -5 -16 -20 -20 -104 -25 -151 -10
-174 -9 -174 8 0 28 -18 15 -22 -16 -4 -25 -1 -33 14 -37 10 -2 27 -21 38 -41
12 -22 19 -29 20 -18 0 21 9 22 38 1 12 -8 22 -11 22 -5 0 5 -6 11 -12 14 -7
2 -10 8 -6 12 4 4 14 5 22 2 20 -8 34 -59 18 -65 -7 -2 -12 -11 -12 -19 0 -13
8 -15 47 -9 43 6 85 26 54 26 -7 0 -9 5 -6 10 3 6 0 10 -7 10 -9 0 -9 3 2 10
21 14 30 12 30 -5 0 -18 38 -19 128 -4 49 9 66 16 69 30 5 17 11 19 57 12 56
-8 75 -7 125 3 23 4 36 3 41 -7 6 -9 12 -10 22 -2 20 15 127 52 178 61 30 6
44 13 42 22 -6 24 -5 130 1 136 3 3 25 -1 48 -8 28 -8 100 -13 195 -12 117 0
151 -3 150 -13 -1 -7 -5 -16 -9 -19 -10 -11 -8 -67 3 -84 7 -11 10 -8 10 16 0
16 8 39 18 50 41 45 75 142 97 277 7 43 67 152 89 160 20 8 61 -14 83 -44 45
-61 73 -121 73 -155 0 -12 4 -26 10 -29 5 -3 9 -16 8 -28 0 -12 3 -34 7 -50 7
-26 6 -27 -19 -17 -17 6 -26 6 -26 -1 0 -11 41 -29 52 -22 5 2 7 -4 6 -14 -4
-45 4 -67 37 -99 38 -36 54 -41 73 -22 9 9 12 9 12 -1 0 -20 -33 -41 -46 -30
-8 6 -24 -1 -49 -23 -20 -18 -40 -33 -43 -34 -23 -3 -69 -18 -80 -27 -7 -5
-53 -11 -102 -11 -48 -1 -91 -4 -94 -7 -4 -3 3 -14 14 -24 15 -14 34 -18 73
-17 28 2 47 -1 40 -6 -7 -5 -9 -13 -3 -22 7 -11 11 -11 23 -1 18 14 30 1 21
-23 -4 -11 -1 -16 11 -16 12 0 15 5 10 21 -5 15 -4 19 4 15 6 -4 11 -15 11
-24 0 -9 9 2 19 25 14 31 25 41 40 40 11 -1 18 -3 16 -5 -5 -5 39 -42 49 -42
3 0 5 3 4 7 -5 24 38 77 54 67 4 -3 28 16 53 41 39 39 59 50 86 47 3 -1 5 24
4 54 -1 33 2 54 9 55 6 1 0 4 -14 8 -14 4 36 6 110 3 205 -7 358 25 414 87 18
20 66 182 66 225 0 11 5 38 10 58 9 32 17 39 51 50 26 7 60 32 95 66 30 30 56
53 58 51 2 -2 1 -25 -3 -50 -4 -25 -4 -54 0 -65 12 -31 11 -76 -2 -68 -8 5
-10 -15 -6 -69 3 -46 1 -77 -5 -79 -6 -2 -12 -25 -15 -52 -3 -26 -9 -42 -13
-36 -12 19 -39 -76 -34 -117 3 -29 2 -33 -5 -18 -9 19 -10 19 -10 -2 -1 -12
-9 -27 -18 -33 -17 -11 -17 -11 0 -6 24 8 21 -12 -9 -51 -27 -36 -44 -103 -26
-103 6 0 13 9 17 20 3 11 12 19 18 17 7 -1 11 8 9 24 -1 17 3 29 14 33 13 5
15 2 10 -19 -4 -14 -2 -25 4 -25 5 0 10 -5 10 -11 0 -5 -5 -7 -11 -3 -7 4 -9
0 -5 -13 4 -12 -1 -24 -14 -33 -11 -8 -20 -22 -20 -30 0 -9 -6 -25 -14 -35
-12 -17 -12 -23 0 -47 13 -25 13 -27 -6 -23 -11 2 -20 -1 -20 -6 0 -6 -4 -8
-9 -4 -5 3 -13 0 -17 -6 -3 -6 0 -15 7 -20 7 -4 10 -11 6 -16 -5 -4 -11 -2
-15 4 -12 19 -46 20 -50 1 -2 -13 1 -16 12 -12 10 4 16 1 16 -9 0 -9 -8 -18
-18 -21 -9 -3 -22 -16 -27 -28 -10 -24 -45 -38 -45 -19 0 6 5 10 12 9 6 -2 13
5 15 14 3 12 -1 15 -16 11 -30 -8 -61 -41 -61 -66 -1 -20 -2 -20 -16 6 l-15
28 -29 -21 c-36 -26 -48 -25 -79 3 -14 12 -23 18 -19 13 4 -5 -3 -17 -15 -27
l-22 -18 26 -1 c18 0 28 -7 32 -19 7 -29 -1 -32 -38 -13 -35 18 -48 43 -39 78
5 18 0 22 -32 27 -27 5 -43 2 -55 -9 -12 -11 -19 -12 -24 -4 -4 7 -15 10 -25
7 -10 -2 -24 -1 -31 4 -10 6 -7 9 11 10 23 0 23 1 5 9 -13 5 -26 3 -36 -6 -9
-8 -19 -11 -22 -8 -4 4 -13 1 -21 -5 -11 -10 -15 -8 -19 6 -4 16 -5 16 -6 1
-1 -11 -6 -15 -16 -12 -8 4 -15 1 -15 -5 0 -6 -19 -11 -45 -11 -33 0 -43 3
-39 14 3 9 -6 15 -33 19 -20 4 -40 3 -43 -1 -3 -4 -25 -17 -48 -30 -58 -29
-139 -30 -175 -2 -14 11 -29 20 -33 20 -4 0 -16 7 -25 16 -16 14 -23 15 -48 4
-22 -9 -34 -9 -51 0 -27 14 -92 24 -71 10 11 -6 4 -9 -25 -12 -36 -3 -39 -5
-36 -30 1 -16 -2 -28 -8 -28 -5 0 -10 -7 -10 -15 0 -8 -4 -15 -10 -15 -5 0 -7
-6 -4 -14 4 -11 -5 -17 -31 -22 -29 -5 -39 -3 -51 12 -15 19 -15 19 -10 0 6
-16 4 -17 -9 -6 -9 7 -14 19 -11 27 3 7 1 13 -5 13 -6 0 -8 4 -5 9 3 5 -1 11
-8 14 -44 17 30 -109 138 -237 45 -52 48 -59 32 -68 -82 -46 -108 -115 -77
-203 16 -45 17 -55 5 -55 -8 0 -14 10 -15 23 0 12 -3 16 -6 9 -3 -7 4 -50 16
-95 11 -45 23 -117 27 -160 4 -43 13 -84 19 -91 7 -7 16 -47 20 -89 l7 -77
613 0 612 0 14 105 c8 58 12 105 9 105 -3 0 -18 -8 -35 -18 -16 -10 -52 -26
-80 -35 -188 -60 -391 -91 -550 -84 -98 5 -119 10 -195 43 -47 20 -92 42 -100
49 -8 6 -35 23 -60 37 -99 57 -276 273 -295 359 -10 44 12 95 57 134 33 28 44
32 56 23 20 -17 92 -127 92 -142 0 -6 5 -17 11 -23 7 -7 8 -17 1 -29 -12 -23
0 -59 23 -68 10 -4 15 -13 13 -24 -5 -18 13 -42 32 -42 6 0 8 -5 4 -11 -4 -8
0 -9 15 -4 15 4 23 1 27 -10 4 -9 13 -14 22 -10 8 3 26 -2 39 -11 14 -8 27
-13 30 -10 3 3 15 0 27 -6 11 -7 44 -13 71 -13 29 -1 67 -10 92 -23 24 -13 43
-17 45 -11 3 9 49 23 118 35 33 6 90 5 115 -2 l20 -6 -20 16 c-20 15 -20 15 2
16 36 0 216 64 235 82 10 10 25 18 33 18 8 0 15 7 15 15 0 8 10 19 21 26 13 6
19 7 15 1 -3 -6 -1 -12 5 -14 16 -5 -10 -46 -33 -54 -33 -10 -19 -24 22 -22
22 1 38 3 36 5 -2 2 16 25 40 51 25 26 47 61 50 79 3 18 10 33 15 33 4 0 11
17 15 37 4 21 11 43 16 50 10 13 1 54 -14 64 -6 4 -6 9 1 13 6 4 11 2 11 -3 0
-6 5 -11 10 -11 6 0 9 6 8 12 -2 7 6 14 17 16 17 2 20 9 17 44 -5 42 17 126
28 109 5 -9 13 122 14 231 0 21 3 33 6 27 6 -8 42 81 66 159 2 6 13 12 24 12
11 0 20 5 20 10 0 6 -7 10 -15 10 -19 0 -19 24 -1 40 24 19 35 67 45 195 6 76
6 160 0 225 -11 122 -5 184 18 176 8 -3 12 -2 8 3 -3 5 0 11 7 13 9 3 10 15 2
51 -6 25 -8 50 -5 55 8 13 73 45 94 47 20 2 20 1 8 -43 -14 -49 -6 -39 28 32
17 35 35 67 41 71 12 8 12 8 1 -33 -11 -37 9 -67 40 -59 17 5 19 -1 19 -44 0
-39 -3 -47 -15 -43 -8 4 -15 12 -15 20 0 17 -4 17 -52 3 -44 -12 -50 -29 -10
-29 39 0 73 -11 66 -21 -3 -5 -30 -9 -60 -9 -30 0 -54 -4 -54 -10 0 -6 53 -9
138 -7 124 2 141 0 177 -20 65 -34 105 -89 118 -161 8 -39 -8 -122 -29 -148
-12 -16 -11 -13 1 18 19 47 19 124 0 163 -11 23 -13 24 -7 5 33 -112 -37 -244
-140 -266 -16 -4 -25 -11 -22 -19 3 -7 1 -16 -5 -20 -19 -11 -12 -25 12 -25
44 0 125 50 160 98 87 121 76 249 -31 343 -42 36 -48 46 -52 92 -3 34 -9 51
-17 49 -8 -1 -13 10 -13 30 0 42 -10 78 -21 78 -5 0 -8 -10 -6 -22 1 -17 -3
-22 -16 -20 -10 2 -24 -2 -32 -8 -14 -11 -31 2 -21 18 2 4 -14 6 -36 4 -38 -4
-40 -3 -33 19 4 13 7 26 7 29 0 20 -4 29 -18 34 -10 4 -13 2 -8 -7 6 -9 5 -9
-7 0 -12 10 -24 4 -63 -32 -27 -24 -52 -43 -55 -42 -13 3 -80 -27 -75 -34 2
-4 0 -10 -5 -14 -15 -9 -5 26 18 65 11 19 35 44 53 54 43 25 68 54 62 71 -3 7
2 34 10 59 9 26 16 68 17 94 1 36 3 41 8 22 6 -22 8 -23 14 -7 12 32 8 67 -8
67 -8 0 -15 -8 -16 -17 0 -13 -3 -11 -10 7 -7 17 -6 47 2 94 8 51 8 92 0 160
-6 50 -13 119 -16 154 -10 108 -80 331 -120 382 -7 8 -20 40 -29 70 -53 165
-177 342 -263 371 -57 20 -178 16 -240 -8 -57 -23 -143 -21 -143 3 0 7 -17 18
-37 24 -21 7 -51 20 -68 30 -41 24 -86 29 -180 18z m-1029 -1261 c14 -14 24
-42 29 -82 4 -33 13 -74 20 -92 7 -17 15 -56 17 -85 2 -42 0 -53 -12 -54 -38
-2 -93 -25 -110 -46 -10 -13 -40 -35 -66 -48 l-48 -25 59 -6 c33 -3 53 -7 45
-8 -8 -1 -51 -8 -95 -15 -44 -8 -82 -12 -84 -10 -2 1 12 9 30 17 19 8 42 24
53 35 21 24 16 35 -41 98 l-28 31 -79 -9 c-61 -6 -82 -5 -88 4 -6 8 -8 -4 -7
-32 1 -25 2 -85 1 -133 l-2 -88 -27 3 c-27 3 -28 6 -36 83 -5 44 -11 87 -14
95 -3 8 -6 34 -7 57 -1 35 2 44 22 52 12 6 29 11 37 11 8 0 15 4 15 9 0 4 26
23 58 40 31 18 84 51 117 75 119 85 209 146 214 146 3 0 15 -10 27 -23z m786
-181 c6 -8 8 -7 8 1 0 25 69 -18 75 -46 5 -27 -15 -99 -32 -110 -16 -10 -33
-48 -33 -75 0 -42 -21 -75 -51 -81 -46 -10 -64 1 -77 50 -16 59 -46 104 -93
139 -20 16 -45 43 -55 62 -17 32 -17 34 0 53 10 11 24 17 30 14 14 -9 47 -4
63 9 7 5 21 7 32 3 10 -3 22 -2 25 3 7 12 98 -6 108 -22z m1253 -95 c-15 -14
-24 -19 -19 -11 25 42 39 59 43 49 2 -6 -9 -23 -24 -38z m-159 -6 c-9 -14 -20
-23 -25 -21 -4 3 -14 -4 -21 -15 -15 -20 -40 -26 -40 -8 0 6 -10 8 -22 5 -13
-4 0 4 27 18 28 13 59 31 70 39 27 21 31 13 11 -18z m-2476 -35 c0 -5 -7 -10
-15 -10 -8 0 -15 5 -15 10 0 6 7 10 15 10 8 0 15 -4 15 -10z m2577 -28 c-10
-10 -17 -29 -18 -43 0 -19 -2 -20 -7 -7 -5 13 -11 15 -22 8 -8 -5 -10 -10 -4
-10 22 0 23 -40 2 -51 -11 -6 -22 -8 -25 -5 -3 3 -12 -2 -19 -12 -13 -16 -13
-16 -14 1 0 15 9 20 30 19 3 0 6 11 7 26 0 15 16 40 40 63 38 37 61 45 30 11z
m-2490 1 c4 -11 -26 -27 -35 -19 -2 3 -2 12 2 21 6 18 27 16 33 -2z m153 13
c0 -11 -19 -15 -25 -6 -3 5 1 10 9 10 9 0 16 -2 16 -4z m437 -28 c17 -21 22
-57 9 -67 -13 -11 -36 -14 -91 -12 l-40 1 47 45 c50 48 60 52 75 33z m-579
-39 c-2 -6 -8 -10 -13 -10 -5 0 -11 4 -13 10 -2 6 4 11 13 11 9 0 15 -5 13
-11z m820 -9 c-12 -19 -58 -29 -58 -12 0 16 24 32 47 32 21 0 22 -2 11 -20z
m892 5 c-7 -8 -21 -15 -32 -15 -17 0 -18 3 -8 15 7 8 21 15 32 15 17 0 18 -3
8 -15z m180 -7 c0 -6 -6 -5 -15 2 -8 7 -15 14 -15 16 0 2 7 1 15 -2 8 -4 15
-11 15 -16z m-875 -38 c3 -6 -1 -7 -9 -4 -18 7 -21 14 -7 14 6 0 13 -4 16 -10z
m-395 -40 c-12 -8 -8 -17 28 -47 23 -21 42 -45 42 -53 0 -18 89 -120 91 -105
4 33 3 41 -4 52 -16 23 4 33 66 33 54 -1 60 -2 45 -14 -26 -19 -22 -26 13 -26
17 0 28 4 24 10 -3 6 -1 10 4 10 6 0 11 -7 11 -15 0 -8 -9 -15 -20 -15 -14 0
-20 -7 -20 -24 0 -20 4 -23 22 -18 18 4 20 2 16 -16 -8 -28 17 -29 52 -2 32
25 40 25 41 -2 1 -15 4 -11 9 12 7 35 7 35 9 -10 2 -63 -25 -161 -52 -186 -24
-24 -134 -49 -225 -53 -55 -2 -168 17 -158 26 13 13 -17 42 -80 79 -37 21 -70
38 -74 37 -3 -1 -13 14 -22 33 -9 19 -13 34 -10 34 2 0 22 -16 43 -35 21 -19
51 -37 66 -41 16 -4 34 -11 41 -17 19 -15 23 -4 12 34 -6 18 -10 73 -10 121 0
48 -5 90 -10 93 -10 6 -30 49 -44 93 -7 21 -4 22 51 22 41 0 54 -3 43 -10z
m2200 1 c-18 -12 -92 -12 -84 0 3 5 26 9 52 9 33 0 43 -3 32 -9z m-2381 -38
c-1 -34 -2 -35 -9 -13 -11 36 -11 50 0 50 6 0 10 -17 9 -37z m1911 17 c0 -5
-5 -10 -11 -10 -5 0 -7 5 -4 10 3 6 8 10 11 10 2 0 4 -4 4 -10z m-1520 -20
c14 -11 20 -20 13 -20 -21 0 -63 19 -63 30 0 16 23 11 50 -10z m-420 -33 c0
-36 -15 -27 -25 16 -6 22 -4 26 9 21 10 -4 16 -18 16 -37z m1306 28 c15 -11
16 -14 3 -15 -8 0 -24 7 -35 15 -15 11 -16 14 -3 15 8 0 24 -7 35 -15z m437
-36 c14 -50 1 -194 -23 -271 -24 -77 -38 -89 -142 -112 -110 -26 -441 -5 -422
25 4 8 -25 14 -48 10 -4 0 -4 7 -1 16 5 13 2 15 -11 10 -10 -4 -15 -3 -11 3 3
6 0 10 -8 10 -26 0 -70 115 -60 160 7 35 15 38 28 9 6 -12 15 -21 20 -20 6 1
12 -8 15 -20 3 -12 11 -24 18 -25 7 -1 8 0 2 3 -16 7 -12 33 5 33 8 0 15 6 15
14 0 9 -8 12 -24 9 -18 -4 -25 0 -29 18 -8 29 6 44 30 35 15 -6 15 -8 3 -16
-8 -6 -10 -10 -5 -11 59 -5 109 -27 128 -56 4 -7 14 -10 21 -7 8 3 17 0 21 -6
5 -8 11 -8 21 1 8 7 29 9 51 5 21 -3 32 -3 26 0 -7 3 -13 11 -13 18 0 6 -14
20 -31 30 -22 13 -28 23 -24 34 4 10 9 24 12 33 4 14 16 16 61 14 82 -4 82 -4
82 -21 0 -10 6 -14 14 -11 8 3 17 1 20 -6 3 -8 7 -9 13 -1 11 14 41 25 83 31
19 2 41 10 50 18 8 8 24 22 36 33 11 10 26 16 32 14 11 -3 17 10 13 31 -1 5 4
7 11 5 7 -3 16 -20 21 -39z m-2035 -7 c6 -18 -15 -14 -22 4 -4 10 -1 14 6 12
6 -2 14 -10 16 -16z m367 -42 c3 -5 1 -10 -4 -10 -6 0 -11 5 -11 10 0 6 2 10
4 10 3 0 8 -4 11 -10z m-59 -17 c3 -10 16 -40 30 -67 13 -27 22 -51 20 -54 -2
-2 -17 3 -32 11 -20 10 -33 29 -44 66 -10 28 -15 53 -12 56 11 11 33 4 38 -12z
m-245 -4 c22 -11 17 -31 -6 -23 -13 5 -30 34 -19 34 3 0 14 -5 25 -11z m776
-45 c-3 -3 -12 -4 -19 -1 -8 3 -5 6 6 6 11 1 17 -2 13 -5z m730 -50 c-3 -3
-12 -4 -19 -1 -8 3 -5 6 6 6 11 1 17 -2 13 -5z m-1492 -35 c10 -30 0 -33 -13
-4 -6 14 -7 25 -2 25 5 0 12 -9 15 -21z m300 -99 c16 -17 16 -20 3 -15 -9 4
-19 13 -22 21 -7 19 -2 18 19 -6z m90 -50 c3 -6 -1 -7 -9 -4 -18 7 -21 14 -7
14 6 0 13 -4 16 -10z m-217 -33 c9 -10 1 -12 -36 -11 -62 2 -66 5 -17 14 22 4
41 8 41 9 1 0 6 -5 12 -12z m-148 -7 c0 -5 -4 -10 -10 -10 -5 0 -10 5 -10 10
0 6 5 10 10 10 6 0 10 -4 10 -10z m225 -47 c19 -21 35 -41 35 -45 0 -16 43
-46 59 -41 12 3 11 1 -3 -11 -26 -21 -57 -21 -50 -1 5 11 -1 15 -20 15 -18 0
-26 -5 -26 -17 0 -9 -3 -13 -7 -10 -3 4 -12 2 -19 -4 -8 -7 -14 -6 -20 2 -4 7
3 19 17 30 13 10 20 21 16 25 -4 4 -13 2 -19 -4 -7 -7 -26 -12 -42 -12 l-31 0
40 19 c22 10 46 25 53 34 12 14 11 16 -7 14 -15 -1 -20 -6 -16 -16 3 -9 2 -12
-2 -7 -10 10 -10 66 0 66 4 0 24 -17 42 -37z m-288 -19 c-3 -3 -12 -4 -19 -1
-8 3 -5 6 6 6 11 1 17 -2 13 -5z m213 -3 c0 -5 -7 -12 -16 -15 -24 -9 -28 -7
-14 9 14 17 30 20 30 6z m-250 -5 c0 -2 -9 -6 -20 -9 -11 -3 -20 -1 -20 4 0 5
9 9 20 9 11 0 20 -2 20 -4z m-260 -186 c0 -5 -5 -10 -11 -10 -5 0 -7 5 -4 10
3 6 8 10 11 10 2 0 4 -4 4 -10z m1205 -345 c11 -5 32 -17 47 -27 14 -10 35
-18 45 -18 11 0 23 -3 27 -7 24 -25 231 -20 321 7 22 6 47 13 55 14 8 1 24 7
35 13 53 27 115 26 115 -3 0 -8 7 -14 15 -14 8 0 15 -5 15 -11 0 -6 -9 -8 -21
-4 -18 6 -19 4 -11 -12 5 -10 7 -24 5 -30 -3 -7 0 -13 6 -13 6 0 11 5 11 10 0
6 7 10 15 10 18 0 20 -27 3 -32 -6 -2 -24 -2 -39 0 -20 3 -26 9 -23 21 4 10 1
9 -7 -4 -7 -11 -18 -24 -26 -28 -7 -4 -13 -14 -13 -21 0 -8 -9 -16 -20 -19
-11 -3 -20 -1 -20 4 0 5 7 9 15 9 8 0 15 4 15 9 0 11 -188 4 -237 -9 -27 -7
-33 -5 -33 7 0 10 -5 13 -17 8 -38 -15 -54 -17 -66 -7 -17 14 -67 8 -78 -9 -5
-8 -9 -9 -9 -3 0 5 5 15 12 22 9 9 8 12 -8 12 -11 0 -26 -6 -32 -12 -8 -8 -15
-9 -20 -3 -10 14 -68 45 -84 45 -7 0 -20 10 -28 22 -8 12 -23 30 -32 40 -17
17 -15 23 6 19 5 -1 6 5 3 13 -6 16 20 16 58 1z m628 -140 c-3 -9 -8 -14 -10
-11 -3 3 -2 9 2 15 9 16 15 13 8 -4z m-562 -115 c5 0 9 -7 9 -15 0 -8 5 -15
10 -15 6 0 10 5 10 11 0 6 7 9 15 6 8 -4 17 -2 20 3 9 15 25 12 25 -5 0 -8 5
-15 11 -15 5 0 7 5 3 11 -4 7 -1 10 6 7 7 -2 14 -12 16 -23 4 -29 44 -48 44
-21 0 7 9 16 20 19 11 3 20 0 20 -5 0 -6 6 -5 15 2 19 16 75 23 75 10 0 -6 7
-10 17 -10 9 0 13 3 9 7 -3 4 15 12 41 19 30 8 49 9 51 3 2 -6 15 -3 28 6 13
8 24 11 24 6 0 -5 -4 -12 -9 -15 -5 -3 -7 -15 -4 -26 4 -15 0 -20 -16 -20 -14
0 -25 -10 -35 -32 -12 -29 -11 -35 2 -51 15 -17 14 -18 -9 -14 -20 4 -32 -3
-58 -33 l-32 -37 -31 29 c-31 29 -32 29 -40 9 -8 -22 -32 -28 -43 -11 -3 5
-12 7 -19 4 -8 -3 -17 -1 -21 5 -9 16 -25 13 -25 -4 0 -8 -4 -15 -10 -15 -5 0
-9 3 -9 8 3 20 -2 32 -15 32 -7 0 -21 11 -30 25 -9 14 -21 23 -25 21 -4 -3
-14 6 -21 19 -9 18 -22 25 -42 25 -15 0 -28 5 -28 10 0 6 5 10 10 10 7 0 8 13
4 37 -6 32 -5 35 10 30 10 -4 22 -7 27 -7z m-61 -30 c0 -5 -5 -10 -11 -10 -5
0 -7 5 -4 10 3 6 8 10 11 10 2 0 4 -4 4 -10z m-50 -10 c8 -5 11 -10 5 -10 -5
0 -17 5 -25 10 -8 5 -10 10 -5 10 6 0 17 -5 25 -10z m1151 -61 c-22 -9 -24 -4
-9 20 12 19 13 19 19 3 4 -11 0 -19 -10 -23z m-471 27 c0 -3 -4 -8 -10 -11 -5
-3 -10 -1 -10 4 0 6 5 11 10 11 6 0 10 -2 10 -4z m-615 -46 c3 -5 1 -10 -4
-10 -6 0 -11 5 -11 10 0 6 2 10 4 10 3 0 8 -4 11 -10z m140 -80 c3 -5 2 -10
-4 -10 -5 0 -13 5 -16 10 -3 6 -2 10 4 10 5 0 13 -4 16 -10z m175 -10 c0 -5
-2 -10 -4 -10 -3 0 -8 5 -11 10 -3 6 -1 10 4 10 6 0 11 -4 11 -10z m710 -50
c0 -5 -9 -10 -19 -10 -11 0 -23 5 -26 10 -4 6 5 10 19 10 14 0 26 -4 26 -10z
m-1260 -30 c0 -5 -2 -10 -4 -10 -3 0 -8 5 -11 10 -3 6 -1 10 4 10 6 0 11 -4
11 -10z m30 -20 c0 -5 -4 -10 -10 -10 -5 0 -10 5 -10 10 0 6 5 10 10 10 6 0
10 -4 10 -10z"/>
<path d="M1085 1900 c-3 -5 -1 -10 4 -10 6 0 11 5 11 10 0 6 -2 10 -4 10 -3 0
-8 -4 -11 -10z"/>
<path d="M2126 1776 c3 -8 13 -17 22 -21 13 -5 13 -2 -3 15 -21 24 -26 25 -19
6z"/>
<path d="M1611 686 c-10 -12 -8 -13 9 -9 25 7 37 23 17 23 -8 0 -20 -6 -26
-14z"/>
<path d="M1720 679 c0 -5 5 -7 10 -4 6 3 10 8 10 11 0 2 -4 4 -10 4 -5 0 -10
-5 -10 -11z"/>
<path d="M1720 650 c0 -5 5 -10 11 -10 5 0 7 5 4 10 -3 6 -8 10 -11 10 -2 0
-4 -4 -4 -10z"/>
<path d="M1777 613 c-4 -3 -7 -11 -7 -17 0 -6 5 -5 12 2 6 6 9 14 7 17 -3 3
-9 2 -12 -2z"/>
<path d="M1865 610 c3 -5 8 -10 11 -10 2 0 4 5 4 10 0 6 -5 10 -11 10 -5 0 -7
-4 -4 -10z"/>
<path d="M1835 580 c3 -5 8 -10 11 -10 2 0 4 5 4 10 0 6 -5 10 -11 10 -5 0 -7
-4 -4 -10z"/>
<path d="M610 3609 c-8 -14 -8 -19 -1 -15 7 5 11 -5 12 -26 0 -18 2 -42 3 -53
2 -11 11 -90 22 -175 22 -182 27 -155 17 100 -7 162 -10 185 -25 188 -9 2 -22
-6 -28 -19z"/>
<path d="M3050 3534 c0 -19 4 -33 8 -30 8 5 4 66 -4 66 -2 0 -4 -16 -4 -36z"/>
<path d="M22 3540 c0 -14 2 -19 5 -12 2 6 2 18 0 25 -3 6 -5 1 -5 -13z"/>
<path d="M3798 3417 c-9 -7 -18 -24 -21 -37 -4 -24 -4 -24 -6 -2 -1 15 -7 22
-20 22 -16 0 -21 -8 -24 -42 l-4 -43 -1 44 -2 44 -37 -7 c-21 -3 -46 -6 -55
-6 -11 0 -18 -10 -21 -32 l-4 -33 -1 34 c-2 32 -3 33 -33 27 -17 -3 -40 -6
-50 -6 -16 0 -19 -9 -21 -57 l-1 -58 -6 55 c-6 52 -9 57 -40 52 -6 -1 -12 -19
-14 -39 l-4 -38 -1 38 c-1 25 -7 37 -17 37 -11 0 -15 -11 -15 -37 -1 -79 22
-689 25 -709 4 -20 10 -21 95 -18 72 2 92 -1 97 -12 6 -17 64 -19 60 -3 -1 6
4 14 11 16 6 3 12 -2 12 -11 0 -9 5 -16 10 -16 6 0 10 7 10 15 0 8 7 15 15 15
8 0 15 -7 15 -15 0 -8 5 -15 11 -15 6 0 9 7 5 15 -4 10 1 15 14 15 11 0 20 -4
20 -10 0 -5 5 -10 10 -10 6 0 10 7 10 15 0 8 9 15 20 15 11 0 20 -7 20 -15 0
-8 -4 -15 -10 -15 -5 0 -10 -8 -9 -17 0 -11 3 -13 6 -5 2 6 14 12 25 12 15 0
18 5 13 20 -5 15 -2 20 10 20 11 0 15 -5 11 -15 -3 -9 0 -15 9 -15 8 0 15 9
15 20 0 23 18 27 26 5 9 -22 31 -18 38 8 10 38 7 105 -6 109 -7 3 -8 9 -3 18
8 13 17 240 9 240 -1 0 -14 -4 -28 -10 -25 -9 -26 -14 -28 -87 l-2 -78 -3 73
c-4 75 -15 89 -46 57 -8 -8 -17 -12 -19 -9 -3 2 -28 -7 -56 -21 -48 -24 -85
-24 -89 0 -1 6 -4 27 -8 47 -7 35 -5 38 21 48 16 6 55 24 87 40 31 17 62 30
68 30 6 0 9 -16 7 -37 -2 -31 -9 -41 -33 -52 -16 -8 -33 -20 -37 -27 -5 -6
-17 -10 -28 -7 -11 3 -20 0 -20 -6 0 -6 -10 -16 -22 -22 -19 -8 -17 -9 12 -4
19 3 78 26 130 50 l95 45 3 204 c2 199 2 204 -17 199 -11 -3 -22 -15 -24 -27
-4 -21 -4 -21 -6 2 -1 24 -29 30 -49 10 -8 -8 -12 -8 -12 -1 0 17 -50 2 -50
-16 -1 -9 -6 -5 -13 11 -10 23 -14 25 -29 15z m169 -84 c-3 -10 -5 -4 -5 12 0
17 2 24 5 18 2 -7 2 -21 0 -30z m-410 -40 c-2 -16 -4 -5 -4 22 0 28 2 40 4 28
2 -13 2 -35 0 -50z m110 0 c-2 -16 -4 -5 -4 22 0 28 2 40 4 28 2 -13 2 -35 0
-50z m182 20 c-2 -35 -3 -40 -6 -18 -3 16 -10 33 -16 37 -9 6 -8 11 3 18 8 5
16 10 18 10 1 0 1 -21 1 -47z m58 -15 c-2 -13 -4 -5 -4 17 -1 22 1 32 4 23 2
-10 2 -28 0 -40z m-120 -35 c-2 -16 -4 -5 -4 22 0 28 2 40 4 28 2 -13 2 -35 0
-50z m-170 -10 c-2 -16 -4 -5 -4 22 0 28 2 40 4 28 2 -13 2 -35 0 -50z m120
-30 c-2 -16 -4 -3 -4 27 0 30 2 43 4 28 2 -16 2 -40 0 -55z m-290 -25 c-2 -18
-4 -4 -4 32 0 36 2 50 4 33 2 -18 2 -48 0 -65z m230 -25 c-2 -16 -4 -3 -4 27
0 30 2 43 4 28 2 -16 2 -40 0 -55z m-170 -10 c-2 -16 -4 -3 -4 27 0 30 2 43 4
28 2 -16 2 -40 0 -55z m60 10 c-2 -16 -4 -5 -4 22 0 28 2 40 4 28 2 -13 2 -35
0 -50z m313 -3 c0 -28 -4 -40 -15 -40 -8 0 -23 -10 -35 -22 -11 -12 -20 -18
-20 -14 0 5 -11 1 -25 -8 -14 -9 -29 -14 -34 -12 -5 3 -11 -4 -15 -17 -5 -18
-8 -20 -16 -7 -5 8 -10 29 -10 46 0 25 5 33 24 38 14 3 31 12 38 19 14 14 88
55 101 56 4 1 7 -17 7 -39z m-253 -47 c-2 -16 -4 -3 -4 27 0 30 2 43 4 28 2
-16 2 -40 0 -55z m-170 -85 c-2 -24 -4 -7 -4 37 0 44 2 63 4 43 2 -21 2 -57 0
-80z m230 -25 c-2 -21 -4 -6 -4 32 0 39 2 55 4 38 2 -18 2 -50 0 -70z m-110
-5 c-2 -18 -4 -4 -4 32 0 36 2 50 4 33 2 -18 2 -48 0 -65z m-60 -55 c-2 -27
-3 -5 -3 47 0 52 1 74 3 48 2 -27 2 -69 0 -95z m120 -65 c-2 -29 -3 -6 -3 52
0 58 1 81 3 53 2 -29 2 -77 0 -105z m240 10 c-3 -8 -6 -5 -6 6 -1 11 2 17 5
13 3 -3 4 -12 1 -19z m0 -55 c-3 -10 -5 -4 -5 12 0 17 2 24 5 18 2 -7 2 -21 0
-30z m-147 -143 c0 -25 -18 -36 -26 -16 -8 21 3 49 16 41 5 -3 10 -15 10 -25z
m50 14 c0 -9 -5 -14 -12 -12 -18 6 -21 28 -4 28 9 0 16 -7 16 -16z m58 -1 c-4
-22 -22 -20 -26 1 -2 10 3 16 13 16 10 0 15 -7 13 -17z m52 -29 c0 -8 -4 -12
-10 -9 -5 3 -10 13 -10 21 0 8 5 12 10 9 6 -3 10 -13 10 -21z"/>
<path d="M3090 2735 c0 -8 5 -15 10 -15 6 0 10 7 10 15 0 8 -4 15 -10 15 -5 0
-10 -7 -10 -15z"/>
<path d="M3105 2670 c-27 -4 -45 -8 -40 -9 6 -1 3 -6 -5 -11 -13 -8 -13 -10 2
-10 9 0 20 5 23 10 3 6 12 10 18 9 8 0 8 -2 -1 -6 -10 -4 -10 -8 -1 -19 12
-14 60 -19 72 -7 4 3 19 8 33 9 32 4 38 9 31 29 -7 16 -41 18 -132 5z"/>
<path d="M3433 2514 c4 -38 7 -91 8 -119 1 -27 3 -42 6 -33 3 11 17 18 41 20
20 2 36 8 34 13 -2 6 -18 9 -36 7 l-33 -3 1 87 c1 67 -2 88 -13 92 -12 4 -13
-7 -8 -64z"/>
<path d="M3153 2552 l-73 -3 0 -34 c0 -34 12 -46 25 -25 8 13 62 13 70 0 3 -5
1 -19 -5 -30 -9 -17 -7 -20 15 -26 46 -11 56 0 53 62 -1 30 -5 56 -8 57 -3 1
-38 1 -77 -1z"/>
<path d="M3542 2532 c-19 -3 -23 -8 -18 -25 4 -12 9 -35 13 -50 4 -21 11 -27
27 -25 16 2 22 11 24 41 2 20 -1 37 -7 37 -5 0 -11 6 -13 13 -2 6 -14 11 -26
9z"/>
<path d="M3831 2503 c-16 -56 -14 -60 19 -55 30 4 31 5 10 19 -17 12 -20 21
-15 44 10 42 -2 36 -14 -8z"/>
<path d="M3630 2465 c0 -16 16 -20 24 -6 3 5 -1 11 -9 15 -9 3 -15 0 -15 -9z"/>
<path d="M3165 2413 c-58 -5 -71 -11 -57 -25 7 -7 12 -17 12 -22 0 -6 -5 -4
-10 4 -8 13 -10 12 -10 -2 0 -15 9 -18 48 -18 75 0 94 8 90 39 -3 28 -10 30
-73 24z"/>
<path d="M3854 2268 c-3 -4 -21 -8 -40 -8 -19 0 -34 -4 -34 -9 0 -12 -43 -22
-50 -12 -17 26 -80 14 -80 -15 0 -6 -11 -11 -25 -11 -14 0 -29 -3 -32 -7 -14
-14 8 -17 56 -8 47 9 50 8 40 -9 -5 -11 -14 -19 -19 -19 -6 0 -10 -7 -10 -16
0 -11 5 -14 18 -9 9 4 24 9 33 12 10 3 15 12 12 23 -9 34 70 44 95 12 11 -14
12 -14 12 0 0 15 54 28 113 28 20 0 20 0 -1 -20 -12 -12 -22 -25 -22 -30 0 -6
-12 -10 -27 -11 -16 0 -37 -4 -48 -8 -14 -6 -7 -9 30 -15 30 -4 51 -2 53 4 2
5 9 4 17 -3 17 -16 9 -27 -20 -27 -13 0 -25 -6 -28 -12 -3 -10 -7 -10 -20 0
-13 11 -38 12 -114 6 -54 -5 -107 -8 -119 -7 -18 1 -21 -4 -22 -39 -1 -22 -4
-44 -7 -48 -3 -5 4 -14 15 -20 16 -9 20 -8 20 6 0 14 3 14 15 4 9 -7 14 -18
12 -24 -3 -10 -7 -12 -42 -15 -10 -1 -15 -12 -15 -31 0 -28 1 -29 58 -33 l57
-3 -57 -2 c-32 -1 -58 -7 -58 -12 0 -7 33 -10 89 -9 102 2 129 11 88 30 -27
12 -27 14 -25 98 2 77 2 79 5 21 5 -107 6 -110 61 -111 29 -1 37 -4 19 -6 -33
-5 -26 -23 9 -23 34 0 30 -24 -9 -54 -19 -15 -37 -26 -41 -26 -34 0 -156 -132
-156 -169 0 -9 -11 -32 -25 -51 -31 -42 -43 -86 -56 -199 -19 -166 -19 -204 1
-226 50 -55 87 -164 60 -180 -5 -3 -10 -1 -10 5 0 6 -5 8 -10 5 -21 -13 -47 6
-75 55 -52 89 -58 55 -8 -47 14 -29 26 -67 27 -85 1 -18 7 -37 13 -43 7 -5 16
-26 19 -45 12 -66 -35 21 -51 94 -3 17 -9 26 -13 20 -12 -17 -31 -14 -37 6 -5
16 -9 17 -24 8 -20 -12 -22 -54 -3 -51 7 2 12 -4 12 -13 0 -9 6 -14 13 -11 8
3 20 1 28 -5 11 -8 11 -9 -3 -5 -33 11 -28 -24 10 -61 38 -39 71 -52 181 -72
35 -6 93 -22 130 -35 36 -13 67 -22 70 -20 8 9 -32 85 -45 85 -11 0 -34 31
-78 107 -18 31 -46 45 -46 23 0 -5 -4 -10 -10 -10 -5 0 -7 8 -3 18 3 9 3 14
-1 11 -4 -4 -8 -16 -11 -27 -2 -11 -9 -31 -16 -44 l-13 -23 -7 25 c-12 41 -10
70 4 70 7 0 32 9 55 20 83 40 141 20 214 -75 l43 -55 3 737 c1 405 0 738 -2
741 -13 12 -25 -11 -16 -28 15 -29 -6 -34 -27 -6 -19 23 -89 41 -99 24z m-18
-219 c3 -6 0 -15 -7 -20 -10 -6 -11 -9 -1 -9 13 0 16 -37 6 -64 -12 -31 -19
-15 -21 44 -2 56 7 75 23 49z m-166 -14 c0 -8 -4 -15 -10 -15 -5 0 -10 7 -10
15 0 8 5 15 10 15 6 0 10 -7 10 -15z m246 -45 c0 -11 -4 -20 -8 -20 -4 0 -8 9
-8 20 0 11 4 20 8 20 4 0 8 -9 8 -20z m-11 -39 c3 -5 1 -12 -5 -16 -5 -3 -10
1 -10 9 0 18 6 21 15 7z m-365 -1053 c0 -18 -2 -20 -9 -8 -6 8 -7 18 -5 22 9
14 14 9 14 -14z m-15 -66 c-3 -3 -11 0 -18 7 -9 10 -8 11 6 5 10 -3 15 -9 12
-12z"/>
<path d="M3480 2210 c-13 -27 -27 -50 -32 -50 -14 0 -9 -40 7 -46 8 -4 15 -13
15 -21 0 -8 7 -13 17 -11 23 4 28 25 6 31 -10 3 5 6 32 7 50 1 110 18 73 19
-12 1 -18 9 -18 24 -1 21 -1 21 -11 3 -9 -15 -13 -16 -20 -5 -5 8 -6 22 -3 32
3 9 0 17 -6 17 -7 0 -9 7 -6 17 6 14 -8 32 -25 33 -3 0 -16 -22 -29 -50z"/>
<path d="M3776 2175 c-3 -9 -3 -23 1 -30 7 -11 11 -11 25 -1 17 12 17 14 -1
30 -17 15 -19 16 -25 1z"/>
<path d="M3405 2090 c3 -5 15 -10 26 -10 10 0 19 5 19 10 0 6 -12 10 -26 10
-14 0 -23 -4 -19 -10z"/>
<path d="M13 2023 c-7 -2 -13 -20 -13 -38 0 -29 3 -32 21 -28 12 4 25 0 30 -8
6 -10 9 -7 9 11 0 59 -14 77 -47 63z"/>
<path d="M2993 1933 c-19 -4 -23 -11 -23 -43 0 -68 1 -69 103 -64 116 5 119 7
111 41 -9 35 -40 77 -49 64 -4 -7 -15 -7 -31 -1 -25 10 -69 11 -111 3z m14
-75 c-2 -13 -4 -3 -4 22 0 25 2 35 4 23 2 -13 2 -33 0 -45z"/>
<path d="M3185 1923 c4 -10 10 -43 12 -73 4 -48 1 -60 -24 -98 -32 -47 -77
-82 -106 -82 -10 0 -22 -11 -27 -25 -5 -14 -13 -25 -17 -24 -25 4 -33 -4 -33
-36 l0 -35 63 1 c54 2 57 3 22 8 -36 5 -40 9 -40 35 0 25 5 31 41 43 62 21
121 76 141 133 18 51 38 69 57 50 5 -5 19 -10 30 -10 16 0 17 3 8 12 -7 7 -12
27 -12 45 0 28 -6 35 -40 53 -50 26 -85 27 -75 3z"/>
<path d="M126 1723 c-6 -14 -5 -15 5 -6 7 7 10 15 7 18 -3 3 -9 -2 -12 -12z"/>
<path d="M238 1723 c6 -2 18 -2 25 0 6 3 1 5 -13 5 -14 0 -19 -2 -12 -5z"/>
<path d="M308 1723 c7 -3 16 -2 19 1 4 3 -2 6 -13 5 -11 0 -14 -3 -6 -6z"/>
<path d="M180 1695 c0 -8 4 -15 10 -15 5 0 7 7 4 15 -4 8 -8 15 -10 15 -2 0
-4 -7 -4 -15z"/>
<path d="M178 1643 c7 -3 16 -2 19 1 4 3 -2 6 -13 5 -11 0 -14 -3 -6 -6z"/>
<path d="M242 1628 c-17 -17 -15 -35 4 -42 21 -8 24 -8 24 5 0 5 -6 7 -12 3
-9 -5 -8 -2 1 10 17 21 2 43 -17 24z"/>
<path d="M2876 1574 c-10 -26 -7 -34 13 -34 24 0 33 13 25 34 -8 21 -30 21
-38 0z"/>
<path d="M1725 1520 c-13 -6 -15 -9 -5 -9 8 0 22 4 30 9 18 12 2 12 -25 0z"/>
<path d="M3000 1423 l0 -103 -47 -2 c-66 -2 -71 -2 -79 -11 -9 -9 52 -9 134
-1 45 5 59 10 55 20 -4 11 8 14 55 14 71 0 159 17 168 32 5 8 -18 9 -73 4 -76
-7 -81 -6 -86 13 -4 15 0 21 13 21 12 0 17 7 16 23 -1 12 -7 21 -14 20 -7 -2
-12 4 -12 13 0 8 -4 13 -8 10 -4 -2 -14 -1 -22 4 -12 7 -12 10 3 16 27 10 20
24 -14 24 -26 0 -29 -3 -24 -20 7 -23 -12 -53 -27 -44 -6 4 -16 20 -24 38 -12
29 -13 24 -14 -71z"/>
<path d="M3190 1440 c0 -29 3 -50 7 -47 7 8 6 88 -2 95 -3 3 -5 -19 -5 -48z"/>
<path d="M1685 1470 c-19 -7 -19 -8 -2 -15 19 -8 31 -2 26 13 -2 5 -13 6 -24
2z"/>
<path d="M2855 1396 c-15 -69 -13 -71 35 -68 25 2 47 6 49 8 2 2 -8 21 -23 42
-29 43 -54 50 -61 18z"/>
<path d="M2641 1324 c0 -11 3 -14 6 -6 3 7 2 16 -1 19 -3 4 -6 -2 -5 -13z"/>
<path d="M126 1305 c8 -19 25 -19 50 0 18 13 17 14 -18 15 -29 0 -36 -3 -32
-15z"/>
<path d="M1850 1300 c-12 -8 -11 -10 8 -10 12 0 22 5 22 10 0 13 -11 13 -30 0z"/>
<path d="M960 1290 c-21 -7 -21 -8 -5 -9 11 0 27 4 35 9 18 11 5 11 -30 0z"/>
<path d="M1890 1246 c0 -9 5 -16 10 -16 6 0 10 4 10 9 0 6 -4 13 -10 16 -5 3
-10 -1 -10 -9z"/>
<path d="M999 1236 c-2 -2 -112 -11 -244 -20 -132 -9 -264 -18 -294 -21 -30
-2 -63 1 -73 6 -12 6 -18 6 -18 -1 0 -5 -7 -10 -16 -10 -8 0 -12 5 -9 10 8 12
-7 13 -21 1 -11 -10 -192 -31 -269 -31 l-55 0 0 -175 0 -175 87 6 c49 3 94 7
100 9 10 3 12 -17 12 -80 l-2 -84 48 -55 c39 -46 67 -66 159 -112 61 -31 118
-62 127 -70 21 -19 23 -19 119 22 47 20 119 48 160 64 137 51 160 63 159 85 0
11 -15 106 -33 210 l-33 190 22 20 c13 11 46 52 74 92 45 62 50 74 41 97 -8
23 -28 34 -41 22z m-299 -287 c0 -32 -5 -40 -27 -51 -16 -7 -28 -20 -28 -28 0
-8 -9 -16 -20 -17 l-20 -3 20 10 c17 8 15 9 -10 5 -37 -6 -56 5 -60 36 -1 13
-6 32 -10 42 -5 13 -2 17 14 17 14 0 19 -5 14 -16 -6 -16 15 -64 27 -64 4 0 4
19 0 42 -10 55 -5 66 33 70 57 6 67 -1 67 -43z m-246 -5 c4 -11 -1 -13 -22 -8
-35 9 -43 14 -37 23 7 13 53 1 59 -15z m-64 -34 c0 -5 -2 -10 -4 -10 -3 0 -8
5 -11 10 -3 6 -1 10 4 10 6 0 11 -4 11 -10z m508 -18 c7 -5 15 -25 19 -45 l6
-36 -41 19 c-41 20 -53 35 -44 58 5 14 40 16 60 4z m-291 -56 c12 -12 83 -272
83 -303 -1 -15 -4 -14 -23 8 -12 15 -31 30 -42 33 -11 4 -31 25 -45 48 -14 22
-49 56 -77 76 -29 19 -53 38 -52 41 2 21 59 98 80 108 25 13 56 9 76 -11z"/>
<path d="M1792 1220 c0 -14 2 -19 5 -12 2 6 2 18 0 25 -3 6 -5 1 -5 -13z"/>
<path d="M1845 1230 c3 -5 8 -10 11 -10 2 0 4 5 4 10 0 6 -5 10 -11 10 -5 0
-7 -4 -4 -10z"/>
<path d="M1415 1210 c-3 -5 -1 -10 4 -10 6 0 11 5 11 10 0 6 -2 10 -4 10 -3 0
-8 -4 -11 -10z"/>
<path d="M1540 1209 c0 -5 5 -7 10 -4 6 3 10 8 10 11 0 2 -4 4 -10 4 -5 0 -10
-5 -10 -11z"/>
<path d="M1835 1190 c-17 -19 -16 -19 14 -17 32 2 42 21 17 30 -8 3 -22 -3
-31 -13z"/>
<path d="M1922 1202 c-7 -5 -10 -16 -6 -25 7 -18 24 -23 24 -8 0 5 3 16 6 25
7 17 -3 20 -24 8z"/>
<path d="M1677 1143 c-4 -3 -7 -11 -7 -17 0 -6 5 -5 12 2 6 6 9 14 7 17 -3 3
-9 2 -12 -2z"/>
<path d="M1837 1143 c-4 -3 -7 -11 -7 -17 0 -6 5 -5 12 2 6 6 9 14 7 17 -3 3
-9 2 -12 -2z"/>
<path d="M1780 1115 c0 -8 4 -15 9 -15 5 0 11 7 15 15 3 9 0 15 -9 15 -8 0
-15 -7 -15 -15z"/>
<path d="M2051 1114 c0 -11 3 -14 6 -6 3 7 2 16 -1 19 -3 4 -6 -2 -5 -13z"/>
<path d="M3415 1036 c-9 -44 -3 -78 11 -68 18 11 28 53 12 50 -9 -2 -12 6 -10
25 5 38 -6 34 -13 -7z"/>
<path d="M3455 991 c-6 -11 9 -23 19 -14 9 9 7 23 -3 23 -6 0 -12 -4 -16 -9z"/>
<path d="M2770 955 c33 -19 50 -19 50 0 0 11 -11 15 -37 15 l-38 -1 25 -14z"/>
<path d="M3425 949 c-4 -6 -5 -12 -2 -15 2 -3 7 2 10 11 7 17 1 20 -8 4z"/>
<path d="M2845 940 c-3 -5 5 -16 19 -25 118 -78 2 -405 -222 -622 -53 -52 -53
-52 -67 -145 -8 -51 -15 -105 -15 -120 l0 -28 251 0 c235 0 251 1 243 18 -4 9
-8 29 -8 44 -1 14 -4 29 -8 33 -4 4 0 14 8 23 11 11 18 12 27 3 8 -8 7 -11 -6
-11 -9 0 -17 -4 -17 -10 0 -5 5 -10 11 -10 5 0 8 -4 5 -8 -3 -5 -1 -25 5 -45
l10 -37 267 0 c263 1 267 1 245 19 -27 23 -30 33 -5 24 16 -6 16 -5 0 14 -10
11 -18 29 -18 41 0 12 -4 22 -10 22 -5 0 -7 7 -4 15 4 8 2 15 -3 15 -6 0 -18
19 -28 43 -10 23 -28 56 -40 72 -11 17 -27 48 -34 70 -25 72 -41 105 -51 105
-6 0 -10 7 -10 16 0 8 -20 46 -45 84 -25 38 -45 73 -45 77 0 10 -70 112 -92
135 -17 17 -18 17 -18 -9 0 -21 -3 -24 -12 -15 -22 22 -30 13 -23 -25 12 -60
2 -153 -17 -153 -5 0 -6 5 -3 10 3 6 1 10 -4 10 -16 0 -13 16 6 36 13 13 14
19 5 22 -6 2 -12 10 -12 19 0 8 -7 21 -15 29 -8 9 -15 23 -14 32 0 13 3 11 11
-5 6 -13 14 -23 19 -23 12 0 -3 41 -17 47 -8 3 -14 19 -14 38 0 36 -24 100
-41 111 -8 5 -8 1 0 -13 5 -11 12 -32 15 -47 5 -25 3 -27 -27 -24 -18 2 -37
10 -44 18 -11 13 -13 13 -14 0 -1 -8 -1 -22 0 -31 1 -9 -6 -19 -15 -23 -14 -5
-15 -4 -4 9 8 10 9 15 2 15 -7 0 -9 7 -5 17 4 11 3 14 -5 9 -7 -4 -12 -14 -12
-22 0 -8 -4 -12 -10 -9 -5 3 -10 21 -10 38 -1 63 -65 160 -85 127z m212 -166
c-3 -3 -12 -4 -19 -1 -8 3 -5 6 6 6 11 1 17 -2 13 -5z m13 -24 c0 -5 -8 -10
-17 -10 -15 0 -16 2 -3 10 19 12 20 12 20 0z m227 -377 c16 -40 48 -136 48
-148 0 -5 3 -14 6 -20 26 -43 57 -195 41 -195 -6 0 -14 16 -18 35 -3 19 -11
38 -17 42 -6 4 -7 1 -2 -7 5 -9 4 -11 -3 -6 -7 4 -9 19 -5 36 3 19 1 30 -6 30
-6 0 -11 14 -11 30 0 20 -5 30 -15 30 -8 0 -15 5 -15 11 0 6 7 9 15 5 8 -3 15
-1 15 3 0 5 -12 14 -27 19 -22 8 -24 11 -8 12 18 1 19 2 3 14 -11 8 -15 20
-11 34 3 15 1 22 -8 22 -11 0 -11 2 1 10 9 6 11 13 5 18 -12 8 -18 52 -7 52 4
0 12 -12 19 -27z m-220 -39 c-3 -3 -12 -4 -19 -1 -8 3 -5 6 6 6 11 1 17 -2 13
-5z"/>
<path d="M3156 852 c5 -5 36 -31 70 -60 33 -28 74 -70 90 -94 16 -24 40 -53
53 -65 15 -13 22 -27 18 -37 -4 -10 1 -23 13 -33 15 -13 16 -19 7 -25 -8 -5
-7 -8 5 -8 9 0 19 6 21 13 3 6 6 2 6 -10 1 -12 -5 -24 -11 -26 -7 -3 -3 -6 10
-6 15 -1 22 -7 22 -22 0 -12 8 -23 19 -26 12 -3 17 -11 14 -19 -3 -8 0 -14 6
-14 6 0 8 -7 5 -15 -4 -8 -1 -15 6 -15 7 0 9 -8 4 -22 -3 -13 -3 -20 1 -16 11
11 45 -10 45 -27 0 -8 -5 -15 -11 -15 -5 0 -8 4 -4 9 3 5 1 12 -4 15 -5 4 -12
2 -15 -2 -3 -5 14 -27 39 -50 24 -22 42 -42 39 -44 -9 -10 19 -68 33 -68 12 0
12 -2 -1 -16 -20 -19 -20 -28 -1 -21 17 7 30 -9 15 -18 -16 -10 -12 -25 8 -25
12 0 14 -2 4 -8 -10 -7 -4 -18 21 -46 34 -36 34 -36 110 -34 69 1 76 3 81 24
4 16 11 21 26 17 11 -3 20 -1 20 5 0 18 44 22 62 5 17 -15 18 -11 18 106 0
126 -18 214 -48 236 -7 6 -12 17 -10 25 2 9 -6 15 -24 15 -14 1 -34 7 -43 15
-14 12 -18 12 -25 0 -6 -10 -12 -11 -22 -2 -16 13 -98 12 -98 -1 0 -12 48 -57
60 -57 11 0 54 -60 43 -60 -4 0 0 -5 10 -11 21 -13 22 -29 1 -29 -13 0 -14 -3
-5 -14 9 -11 8 -15 -6 -20 -14 -6 -15 -9 -4 -16 8 -4 20 -6 28 -3 7 3 13 0 13
-6 0 -6 -7 -11 -16 -11 -8 0 -22 -6 -30 -14 -12 -13 -31 -13 -72 0 -14 4 20
44 38 44 6 0 10 4 10 9 0 11 -35 21 -72 21 -32 0 -31 0 -18 35 7 18 7 33 0 46
-7 13 -7 19 0 19 21 0 9 18 -19 28 -20 7 -32 7 -40 -1 -8 -8 -11 -7 -11 4 0 8
-12 22 -27 31 l-28 17 36 -2 c27 -1 35 -6 31 -16 -4 -10 -1 -13 11 -8 8 3 18
1 21 -6 3 -7 5 -6 5 3 1 9 -4 21 -9 26 -7 7 -5 17 4 30 14 18 12 20 -37 29
-41 8 -52 14 -53 30 -3 56 -5 65 -15 65 -5 0 -9 -10 -7 -22 2 -11 -2 -23 -8
-25 -7 -2 -10 5 -7 20 4 20 -1 27 -26 38 -17 8 -31 20 -31 26 0 7 -6 13 -12
13 -7 0 -26 14 -43 31 -26 28 -62 54 -130 96 -68 42 -192 92 -159 65z m489
-362 c3 -5 -1 -10 -9 -10 -9 0 -16 5 -16 10 0 6 4 10 9 10 6 0 13 -4 16 -10z
m115 -245 c0 -8 -5 -15 -11 -15 -7 0 -18 -8 -26 -17 -14 -17 -14 -17 -9 0 3 9
1 17 -4 17 -6 0 -10 4 -10 9 0 8 10 12 53 20 4 0 7 -6 7 -14z m101 -75 c6 0 7
-4 4 -10 -4 -6 3 -6 21 0 24 9 25 9 14 -5 -10 -12 -10 -15 4 -15 10 0 15 -4
11 -10 -3 -5 -12 -7 -19 -4 -8 3 -17 1 -21 -5 -8 -13 -35 -15 -35 -2 0 5 6 11
13 14 6 2 4 3 -7 1 -10 -1 -24 3 -31 9 -11 10 -9 16 8 33 16 15 23 17 25 7 2
-7 8 -13 13 -13z m-111 -30 c0 -5 -7 -10 -16 -10 -8 0 -12 5 -9 10 3 6 10 10
16 10 5 0 9 -4 9 -10z m154 -41 c-3 -6 -1 -15 6 -19 8 -5 5 -9 -9 -13 -27 -7
-35 7 -15 27 18 18 28 21 18 5z m63 -16 c-7 -6 -46 10 -41 18 3 5 14 3 24 -3
11 -7 18 -13 17 -15z m-106 -10 c-8 -15 -10 -15 -11 -2 0 17 10 32 18 25 2 -3
-1 -13 -7 -23z"/>
<path d="M3562 666 c18 -19 37 -32 42 -29 4 3 2 9 -5 14 -7 4 -10 11 -6 16 10
10 27 -16 20 -33 -4 -12 31 -39 52 -39 6 0 26 -13 46 -28 42 -32 53 -34 44 -8
-3 11 -1 22 5 26 5 3 10 12 10 18 0 8 -3 8 -9 -2 -5 -8 -11 -9 -15 -3 -4 6 2
15 11 21 17 10 16 11 -4 17 -13 3 -23 10 -23 15 0 5 -11 9 -25 9 -17 0 -25 -5
-25 -17 0 -15 2 -16 10 -3 9 13 11 13 20 0 15 -23 12 -33 -7 -25 -10 4 -31 11
-48 15 -16 4 -22 8 -12 9 17 1 17 2 2 17 -9 9 -29 17 -45 18 -16 1 -35 7 -42
14 -6 6 -16 12 -21 12 -5 0 6 -15 25 -34z"/>
<path d="M3770 560 c0 -5 5 -10 10 -10 6 0 10 5 10 10 0 6 -4 10 -10 10 -5 0
-10 -4 -10 -10z"/>
<path d="M3620 550 c0 -5 5 -10 11 -10 5 0 7 5 4 10 -3 6 -8 10 -11 10 -2 0
-4 -4 -4 -10z"/>
<path d="M1161 533 c-1 -14 -7 -23 -17 -23 -11 0 -15 -6 -11 -19 3 -13 0 -18
-12 -16 -9 1 -24 -1 -33 -6 -10 -6 -18 -5 -20 2 -2 5 -11 7 -20 4 -16 -6 -16
-10 -1 -48 9 -23 21 -48 26 -54 7 -9 5 -13 -7 -13 -9 0 -19 6 -22 14 -9 22
-44 6 -50 -23 -3 -14 -10 -37 -16 -51 -6 -14 -10 -32 -9 -41 1 -9 -5 -22 -13
-28 -12 -10 -13 -17 -4 -31 9 -14 9 -25 0 -45 -7 -14 -8 -24 -3 -21 13 8 22
-36 10 -50 -6 -7 -9 -28 -7 -46 l3 -33 139 -3 139 -3 -7 81 c-5 56 -4 80 4 80
14 0 4 112 -17 195 -9 33 -23 92 -33 130 -10 39 -18 60 -19 48z m-26 -263 c10
-11 16 -20 13 -20 -3 0 -13 9 -23 20 -10 11 -16 20 -13 20 3 0 13 -9 23 -20z"/>
<path d="M3678 533 c6 -2 18 -2 25 0 6 3 1 5 -13 5 -14 0 -19 -2 -12 -5z"/>
<path d="M1032 505 c0 -16 2 -22 5 -12 2 9 2 23 0 30 -3 6 -5 -1 -5 -18z"/>
<path d="M937 493 c-20 -14 -37 -30 -37 -34 0 -4 -22 -34 -50 -65 -27 -31 -50
-63 -50 -71 0 -7 -5 -13 -10 -13 -6 0 -16 -12 -22 -27 -7 -16 -18 -36 -26 -45
-17 -21 -71 -116 -79 -141 -3 -9 -10 -17 -15 -17 -5 0 -7 -4 -4 -9 4 -5 -6
-23 -20 -40 l-26 -31 156 0 c85 0 157 4 160 9 4 5 1 11 -5 13 -9 3 -8 10 2 25
11 19 11 25 -5 42 -15 17 -16 24 -7 35 7 8 10 20 6 26 -3 5 -2 10 3 10 5 0 7
11 5 24 -3 14 2 38 10 55 9 17 11 33 6 36 -9 6 -8 32 2 50 4 6 12 35 19 65 7
30 16 60 19 65 7 9 14 65 8 65 -1 0 -19 -12 -40 -27z"/>
<path d="M800 490 c-9 -6 -10 -10 -3 -10 6 0 15 5 18 10 8 12 4 12 -15 0z"/>
<path d="M3755 490 c3 -5 10 -10 16 -10 5 0 9 5 9 10 0 6 -7 10 -16 10 -8 0
-12 -4 -9 -10z"/>
<path d="M725 459 c-11 -17 -2 -18 25 -4 24 14 24 14 3 15 -12 0 -25 -5 -28
-11z"/>
<path d="M0 396 l0 -53 73 -5 c39 -3 90 -13 112 -23 22 -10 46 -17 52 -16 8 1
10 -4 7 -14 -3 -8 -1 -15 5 -15 24 0 10 51 -24 88 -40 45 -144 92 -203 92 -20
0 -22 -5 -22 -54z"/>
<path d="M671 349 c-30 -5 -61 -15 -69 -21 -12 -10 -11 -15 7 -29 28 -23 27
-26 -13 -33 -19 -4 -39 -13 -45 -20 -6 -8 -26 -16 -43 -20 -42 -8 -120 -55
-112 -67 3 -5 2 -9 -3 -8 -26 4 -53 -3 -51 -13 2 -8 -5 -12 -15 -10 -37 6
-147 -74 -132 -97 3 -6 1 -11 -4 -11 -6 0 -11 -4 -11 -10 0 -6 57 -10 153 -9
120 1 146 3 125 12 -32 12 -38 32 -8 22 23 -7 59 20 37 28 -8 3 -5 11 11 24
27 24 28 33 5 33 -14 0 -11 6 12 25 17 13 36 29 43 35 6 6 12 8 12 5 0 -3 16
10 35 29 19 20 35 44 35 55 0 13 5 18 18 15 9 -2 22 -1 27 3 16 12 56 73 48
72 -4 -1 -32 -5 -62 -10z"/>
<path d="M0 162 l0 -62 24 15 c36 24 37 37 5 75 l-29 34 0 -62z"/>
<path d="M23 53 c-13 -2 -23 -11 -23 -19 0 -19 13 -18 41 6 24 20 22 21 -18
13z"/>
<path d="M3890 14 c0 -8 10 -14 25 -14 16 0 23 5 19 13 -6 18 -44 19 -44 1z"/>
<path d="M3960 20 c0 -13 28 -25 38 -16 3 4 0 11 -8 16 -20 13 -30 12 -30 0z"/>
</g>
</svg>
