<?xml version="1.0" standalone="no"?>
<!DOCTYPE svg PUBLIC "-//W3C//DTD SVG 20010904//EN"
 "http://www.w3.org/TR/2001/REC-SVG-20010904/DTD/svg10.dtd">
<svg version="1.0" xmlns="http://www.w3.org/2000/svg"
 width="407.000000pt" height="407.000000pt" viewBox="0 0 407.000000 407.000000"
 preserveAspectRatio="xMidYMid meet">
<metadata>
Created by potrace 1.14, written by Peter Selinger 2001-2017
</metadata>
<g transform="translate(0.000000,407.000000) scale(0.100000,-0.100000)"
fill="#000000" stroke="none">
<path d="M1 3845 c2 -212 3 -226 21 -236 11 -6 17 -17 14 -25 -4 -11 -1 -12
12 -6 24 13 46 4 32 -13 -9 -11 -7 -12 10 -8 25 7 34 19 20 28 -5 3 -10 14 -9
23 0 14 2 13 9 -3 7 -18 8 -19 15 -2 8 18 35 24 35 7 0 -6 -5 -9 -11 -8 -6 2
-13 -5 -14 -15 -2 -9 1 -15 6 -11 5 3 9 0 9 -6 0 -6 5 -8 10 -5 6 4 8 10 5 14
-2 5 1 16 8 25 12 16 14 16 26 2 12 -14 11 -16 -6 -16 -12 0 -19 -8 -20 -20
-1 -11 3 -20 8 -20 6 0 8 4 4 9 -7 12 32 34 46 26 5 -4 17 -1 25 6 13 10 12
14 -3 33 -14 16 -11 15 10 -3 15 -14 27 -27 27 -29 0 -3 -3 -2 -7 1 -9 10 -34
-13 -27 -25 3 -5 13 -4 22 4 13 11 14 11 7 -1 -6 -11 -4 -13 7 -8 9 3 20 1 25
-4 14 -14 66 7 57 23 -4 7 -3 8 5 4 6 -4 9 -12 6 -17 -4 -5 -1 -9 4 -9 6 0 11
5 11 11 0 5 4 7 10 4 6 -3 10 -1 10 4 0 6 5 11 11 11 5 0 8 -4 4 -9 -3 -5 0
-13 6 -17 12 -7 31 15 23 28 -3 4 3 5 12 1 13 -5 15 -3 10 8 -4 8 1 4 12 -9
14 -15 22 -18 25 -10 4 10 6 10 6 1 1 -7 8 -10 17 -6 9 3 20 0 24 -7 6 -10 12
-11 22 -3 7 6 25 8 40 6 16 -2 28 1 28 6 0 6 7 8 15 5 8 -4 12 -11 8 -18 -4
-7 -1 -7 9 1 8 7 18 9 22 5 4 -4 14 1 21 11 13 18 14 17 20 -2 5 -17 9 -18 20
-8 7 6 11 15 8 20 -2 4 0 7 5 7 6 0 13 -7 16 -16 3 -8 10 -12 16 -9 6 4 8 10
5 15 -3 5 -1 12 5 15 6 4 9 1 8 -7 -2 -8 6 -13 21 -13 14 0 26 -6 28 -12 3 -7
10 -10 18 -7 7 3 22 1 32 -4 22 -11 45 -5 37 11 -3 7 2 3 10 -7 14 -17 20 -16
18 4 0 3 11 6 26 7 24 2 24 1 7 -7 -20 -8 -19 -9 1 -9 12 -1 29 9 38 22 l17
22 -13 -25 c-6 -14 -13 -31 -14 -39 -2 -8 -10 -19 -19 -24 -9 -5 -36 -36 -61
-69 -44 -60 -58 -92 -29 -68 21 18 20 -8 -2 -39 -9 -14 -11 -21 -5 -17 6 3 16
-2 22 -13 9 -18 5 -23 -29 -41 -45 -22 -54 -33 -57 -70 -3 -23 -2 -24 8 -5 17
31 50 65 64 65 11 0 10 -8 -1 -39 -7 -21 -18 -47 -23 -57 -20 -39 -42 -95 -42
-107 0 -7 -7 -24 -14 -39 -8 -16 -17 -41 -19 -56 -3 -16 -15 -48 -28 -73 -13
-24 -24 -55 -26 -69 -14 -135 -14 -160 1 -234 9 -43 21 -87 27 -98 6 -11 12
-47 13 -81 3 -63 23 -137 38 -137 4 0 8 -4 8 -10 0 -5 -12 -10 -27 -11 -16 0
-21 -3 -13 -6 23 -7 40 -12 45 -13 2 -1 17 -13 33 -28 33 -32 49 -64 26 -55
-7 3 -14 9 -14 15 0 5 -9 6 -20 3 -11 -3 -20 -2 -20 3 0 5 -16 17 -35 28 -19
10 -35 23 -35 28 0 5 -7 1 -15 -10 -42 -56 9 -237 92 -322 7 -7 13 -21 13 -30
0 -9 5 -24 11 -32 9 -13 10 -12 5 3 -3 9 -1 17 5 17 14 0 59 -47 52 -54 -4 -3
3 -6 15 -6 18 0 22 -6 22 -35 0 -19 -4 -35 -10 -35 -5 0 -10 4 -10 8 0 5 -14
18 -30 31 l-30 22 13 -33 c7 -18 22 -35 33 -37 26 -5 34 -19 34 -63 0 -20 5
-40 10 -43 6 -3 10 -13 10 -21 0 -17 -31 -19 -49 -1 -11 10 -11 8 -2 -11 7
-13 23 -28 37 -34 13 -6 26 -21 29 -32 20 -101 34 -146 76 -247 27 -65 49
-123 49 -131 0 -11 -26 -17 -107 -25 -104 -11 -109 -13 -136 -45 -16 -18 -33
-45 -39 -60 -5 -16 -14 -28 -19 -28 -6 0 -5 9 1 21 7 11 9 27 6 34 -3 8 0 16
7 18 7 2 0 4 -15 3 -20 -1 -24 -4 -16 -14 8 -9 7 -11 -5 -6 -17 6 -32 34 -18
34 5 0 12 8 15 17 5 13 0 11 -18 -6 -27 -25 -34 -37 -16 -26 11 7 13 -6 4 -29
-3 -9 -11 -16 -16 -16 -6 0 -5 6 2 15 11 14 7 19 -12 16 -4 0 -5 5 -2 13 3 8
1 17 -5 21 -6 3 -11 0 -11 -8 0 -7 -11 -19 -25 -25 -14 -6 -25 -16 -25 -22 0
-6 -5 -8 -10 -5 -6 4 -8 10 -5 15 3 4 -4 6 -15 3 -11 -3 -23 -10 -26 -15 -3
-5 -11 -5 -19 2 -9 7 -16 6 -26 -7 -13 -17 -12 -17 6 -4 13 9 11 5 -5 -11 -25
-25 -51 -28 -30 -3 8 9 6 14 -6 19 -11 4 -15 2 -11 -8 3 -7 -1 -25 -8 -40 -8
-14 -11 -26 -8 -26 3 0 -1 -8 -10 -18 -10 -10 -14 -22 -10 -25 3 -4 3 -7 -1
-7 -5 0 -17 11 -28 25 -21 27 -48 34 -44 12 1 -8 10 -26 20 -42 13 -19 15 -30
7 -38 -6 -6 -14 -7 -18 -3 -4 4 -1 11 6 15 11 7 9 11 -7 20 -18 10 -20 9 -17
-9 2 -11 -1 -20 -6 -20 -6 0 -8 -4 -5 -9 4 -5 1 -11 -4 -13 -6 -2 -12 -10 -13
-18 -3 -21 -16 -40 -27 -40 -5 0 -7 11 -4 25 2 14 0 25 -6 25 -5 0 -10 -7 -10
-16 0 -11 -4 -14 -13 -7 -6 5 -25 10 -42 12 -16 1 -39 9 -50 16 -17 10 -24 10
-39 0 -10 -8 -25 -12 -34 -9 -10 3 -7 -1 6 -7 22 -12 30 -29 13 -29 -5 0 -16
-3 -25 -6 -9 -3 -16 -1 -16 6 0 6 6 8 13 4 8 -5 9 -4 2 4 -16 17 -55 3 -55
-20 0 -11 -5 -28 -10 -38 -14 -26 9 -39 27 -15 7 11 13 14 13 8 0 -12 -18 -27
-42 -36 -12 -4 -16 0 -16 16 1 12 6 28 12 36 9 11 8 13 -4 9 -8 -3 -15 -14
-15 -26 0 -11 -4 -24 -8 -28 -4 -4 -7 -2 -7 5 0 7 -10 25 -21 39 -20 25 -21
25 -15 5 5 -15 3 -23 -5 -23 -8 0 -8 -4 1 -16 8 -8 9 -14 4 -12 -5 1 -22 -5
-39 -15 -17 -9 -27 -17 -22 -18 4 -1 12 -3 17 -4 6 -1 14 -3 20 -4 5 0 14 -10
20 -20 8 -16 7 -19 -7 -17 -9 2 -19 8 -21 14 -2 6 -10 8 -18 5 -13 -5 -12 -8
3 -25 9 -11 13 -19 8 -18 -33 7 -34 1 -34 -290 l-1 -290 1872 0 1873 0 -125
61 c-99 48 -298 129 -317 129 -2 0 12 17 31 38 19 20 58 66 86 102 28 36 67
85 86 109 52 67 59 121 14 121 -11 0 -20 7 -20 15 0 11 -7 14 -22 10 -16 -4
-65 18 -163 70 -194 105 -465 237 -557 271 -43 16 -78 32 -78 36 0 4 18 34 41
68 61 92 137 247 156 320 10 36 17 101 18 148 0 45 2 75 6 65 5 -15 6 -15 12
0 8 21 -2 49 -14 41 -5 -3 -9 2 -9 11 0 11 5 15 14 12 16 -7 26 21 26 76 0 52
25 135 70 232 20 44 42 103 49 130 7 28 21 64 32 81 30 50 26 68 -15 61 -38
-6 -56 14 -35 39 9 11 8 14 -5 14 -22 0 -20 16 8 53 22 30 24 44 30 207 5 117
3 193 -4 230 -7 30 -13 82 -15 115 -6 94 -33 176 -83 253 -23 35 -40 51 -49
48 -8 -3 -12 -2 -8 3 3 5 -5 18 -18 28 -25 20 -53 63 -49 76 1 5 -11 26 -28
47 -16 21 -30 44 -29 51 0 8 5 3 10 -10 5 -13 12 -22 14 -19 14 14 -19 61 -59
85 -40 24 -46 32 -57 85 -14 64 -30 82 -118 142 -43 29 -63 36 -105 37 -72 1
-101 11 -101 34 0 17 -19 38 -35 40 -3 0 -21 12 -40 25 -25 18 -35 31 -32 45
l4 20 -23 -20 c-20 -18 -22 -18 -16 -2 5 14 3 16 -11 9 -15 -7 -48 -8 -105 -4
-11 1 -16 7 -11 15 5 9 4 9 -6 0 -8 -8 -20 -9 -36 -3 -26 10 -54 4 -54 -12 0
-5 -6 -8 -12 -7 -13 2 -46 -10 -105 -37 -26 -13 -36 -13 -55 -3 -13 7 -24 12
-25 11 -2 -1 -13 -2 -25 -2 -17 0 -19 3 -10 12 15 15 16 32 2 23 -14 -9 -12
18 3 35 10 12 9 12 -5 2 -12 -10 -18 -10 -23 -1 -4 6 -1 15 6 20 12 8 12 10 0
18 -8 5 -20 7 -28 4 -7 -3 -13 0 -13 7 0 6 4 9 9 6 5 -3 11 3 14 14 3 11 1 18
-4 14 -5 -3 -9 0 -9 7 0 7 -7 21 -17 31 -9 10 -11 18 -5 18 8 0 9 7 2 24 -5
13 -6 26 -4 29 11 10 -162 5 -174 -6 -10 -8 -16 -7 -21 2 -6 10 -9 9 -14 -2
-4 -10 2 -17 15 -20 11 -3 18 -11 16 -17 -2 -6 -8 -10 -13 -8 -6 2 -9 7 -7 11
1 4 -7 3 -18 -3 -17 -9 -20 -30 -4 -30 3 0 2 5 -1 10 -7 12 8 14 19 3 13 -13
31 -9 38 7 11 25 10 -14 -2 -45 -7 -17 -7 -24 0 -20 9 5 12 -5 9 -32 0 -5 -8
-7 -17 -6 -10 1 -11 0 -4 -3 6 -3 10 -9 7 -14 -6 -10 24 -42 34 -36 4 3 8 -1
8 -9 0 -12 -3 -12 -16 -2 -12 10 -14 9 -8 -5 5 -13 1 -18 -13 -18 -11 0 -20
-5 -20 -11 0 -6 -7 -17 -15 -25 -18 -18 -19 -11 -4 19 12 22 12 22 -10 3 -11
-11 -21 -15 -21 -10 0 5 -5 2 -10 -6 -9 -13 -11 -13 -20 0 -7 11 -10 12 -10 2
0 -13 -53 -72 -64 -72 -3 0 -1 11 4 25 9 24 4 30 -21 27 -4 -1 -5 8 -2 18 3
11 0 27 -7 35 -10 12 -10 18 0 30 15 18 -1 20 -18 3 -9 -9 -9 -5 0 14 7 15 15
25 18 23 3 -2 5 14 6 36 0 42 -4 46 -26 27 -12 -11 -12 -10 -2 3 6 9 9 18 6
21 -3 3 7 8 21 12 27 7 32 20 13 32 -6 4 -8 3 -4 -4 3 -6 2 -13 -4 -17 -5 -3
-10 2 -11 12 0 16 -1 16 -9 -2 -5 -13 -9 -15 -9 -5 -1 8 11 24 27 37 l27 22
-683 1 -683 0 2 -225z m1554 195 c-3 -5 -11 -10 -16 -10 -6 0 -7 5 -4 10 3 6
11 10 16 10 6 0 7 -4 4 -10z m-235 -110 c0 -5 -5 -10 -11 -10 -5 0 -7 5 -4 10
3 6 8 10 11 10 2 0 4 -4 4 -10z m805 -110 c3 -5 -1 -10 -9 -10 -8 0 -18 5 -21
10 -3 6 1 10 9 10 8 0 18 -4 21 -10z m-530 -19 c-3 -6 -12 -8 -20 -4 -8 3 -15
0 -15 -6 0 -6 -4 -11 -10 -11 -5 0 -10 6 -10 13 0 7 14 14 31 15 18 1 28 -2
24 -7z m-131 -43 c-5 -8 -2 -9 9 -5 10 3 17 3 17 -2 0 -16 -14 -21 -27 -9 -11
8 -16 9 -21 1 -9 -15 -30 -20 -32 -9 -1 5 9 14 22 21 30 17 41 18 32 3z m-124
-31 c0 -2 -8 -11 -18 -21 -18 -15 -20 -15 -37 4 -18 20 -18 20 18 20 21 0 37
-2 37 -3z m26 -50 c4 -4 -5 -7 -20 -7 -16 0 -25 -4 -21 -10 10 -17 -4 -11 -24
9 -19 19 -19 19 19 18 21 -1 42 -5 46 -10z m1084 -7 c0 -5 -2 -10 -4 -10 -3 0
-8 5 -11 10 -3 6 -1 10 4 10 6 0 11 -4 11 -10z m-1906 -8 c2 -4 -4 -8 -15 -8
-10 0 -19 4 -19 8 0 4 6 8 14 8 8 0 17 -4 20 -8z m1026 -5 c0 -5 -6 -7 -14 -4
-7 3 -19 0 -26 -6 -10 -9 -11 -9 -5 2 6 11 4 13 -9 8 -10 -4 -15 -3 -11 3 8
12 65 9 65 -3z m930 -17 c6 -11 8 -20 4 -20 -4 0 3 -12 17 -27 l24 -27 -25 17
c-14 10 -38 27 -55 38 -28 19 -28 20 -5 13 22 -6 23 -5 11 10 -11 14 -11 16 2
16 9 0 21 -9 27 -20z m-2360 0 c0 -5 -4 -10 -10 -10 -5 0 -10 5 -10 10 0 6 5
10 10 10 6 0 10 -4 10 -10z m452 -17 c-2 -13 -7 -21 -10 -19 -3 3 -11 1 -19
-6 -11 -8 -17 -8 -26 2 -9 10 -9 11 1 6 14 -8 40 14 35 30 -2 6 3 11 10 11 9
0 12 -9 9 -24z m-505 -12 c-1 -21 -32 -21 -50 -1 -10 12 -9 12 3 3 10 -8 21
-9 30 -3 10 7 11 10 3 10 -7 0 -13 4 -13 10 0 5 6 7 14 4 8 -3 14 -13 13 -23z
m2473 19 c0 -5 -2 -10 -4 -10 -3 0 -8 5 -11 10 -3 6 -1 10 4 10 6 0 11 -4 11
-10z m-2311 -26 c14 -12 -19 -1 -35 12 -18 14 -18 14 6 3 14 -6 27 -13 29 -15z
m371 12 c0 -8 6 -16 13 -19 6 -3 3 -5 -8 -4 -13 1 -21 8 -21 19 0 10 4 18 8
18 4 0 8 -6 8 -14z m-264 -26 c0 -11 -2 -17 -5 -15 -2 3 -10 0 -18 -6 -16 -14
-18 2 -2 18 9 9 7 11 -7 9 -10 -2 -13 -1 -6 1 7 3 10 8 7 13 -3 4 3 6 13 3 10
-2 18 -13 18 -23z m824 22 c0 -4 -15 -13 -32 -20 l-33 -12 25 20 c27 21 40 25
40 12z m530 4 c0 -5 -72 -79 -99 -101 l-24 -20 18 33 c11 17 24 32 30 32 6 0
24 14 40 30 28 29 35 34 35 26z m-759 -43 c13 -16 12 -17 -3 -4 -10 7 -18 15
-18 17 0 8 8 3 21 -13z m1709 -42 c0 -21 -16 -2 -25 29 -7 24 -7 24 9 5 8 -11
16 -27 16 -34z m-440 10 c1 9 7 6 20 -9 11 -13 16 -30 13 -39 -4 -11 -2 -14 5
-9 15 9 15 1 0 -23 -9 -15 -7 -23 16 -47 15 -16 29 -39 32 -51 4 -13 11 -23
17 -23 6 0 19 -7 29 -17 24 -22 29 -15 18 30 -5 22 -4 39 2 43 5 3 60 -16 123
-43 92 -39 116 -53 126 -75 6 -16 15 -28 20 -28 4 0 11 -10 15 -22 8 -26 29
-49 37 -42 3 3 3 13 0 22 -4 10 -2 13 5 8 16 -10 15 -46 0 -46 -10 0 -9 -3 1
-9 7 -5 11 -13 7 -19 -4 -7 3 -9 21 -6 15 3 25 2 21 -1 -4 -4 7 -20 24 -36 42
-42 68 -139 72 -264 1 -59 -3 -115 -10 -136 -7 -20 -11 -59 -10 -88 l1 -52
-40 7 c-22 3 -53 14 -70 24 -16 10 -45 21 -63 23 -18 3 -40 11 -49 19 -13 10
-15 10 -9 0 12 -21 -44 -3 -77 24 -31 26 -102 32 -93 7 3 -7 1 -13 -5 -13 -5
0 -12 7 -15 15 -4 8 -13 15 -21 15 -8 0 -11 -5 -7 -11 5 -9 -1 -10 -22 -3 -68
20 -204 9 -204 -18 0 -4 -11 -8 -25 -8 -14 0 -25 -4 -25 -10 0 -5 -8 -10 -17
-11 -12 0 -13 -2 -5 -6 10 -4 10 -8 0 -21 -20 -24 -17 -62 5 -62 10 0 15 -4
12 -10 -3 -5 -31 -10 -61 -10 -54 0 -55 0 -40 22 11 15 12 26 6 39 -6 10 -7
26 -4 36 4 13 3 14 -3 5 -8 -10 -12 -10 -22 2 -19 23 -71 47 -111 53 -19 2
-49 8 -67 13 -17 4 -34 5 -38 2 -3 -3 -13 -7 -23 -9 -49 -7 -95 -21 -77 -23
l20 -1 -20 -8 c-11 -5 -32 -5 -47 0 -15 4 -30 4 -33 -1 -3 -5 -19 -11 -35 -15
-20 -4 -30 -13 -30 -24 0 -15 -10 -18 -67 -18 -65 -1 -85 -6 -143 -38 -14 -8
-45 -17 -68 -21 -38 -6 -42 -4 -42 14 0 24 -46 58 -54 39 -3 -6 -3 -1 1 13 3
14 7 50 8 80 1 30 3 69 4 87 0 19 10 41 24 53 18 17 18 20 4 14 -18 -6 -18 -5
2 33 11 22 18 49 15 60 -3 11 1 25 10 32 13 11 16 11 16 0 1 -22 28 33 33 68
6 38 15 55 27 48 4 -3 7 3 6 13 0 10 6 17 16 16 9 -1 14 4 12 10 -6 15 43 39
58 30 7 -4 8 -2 4 4 -12 20 -49 13 -78 -15 -22 -21 -28 -23 -28 -10 0 9 3 17
8 17 4 0 8 11 8 24 1 19 -2 23 -15 19 -9 -3 -4 4 12 14 15 11 25 22 22 25 -8
8 24 32 45 33 14 1 16 -3 10 -19 -4 -12 -13 -20 -18 -19 -6 1 -12 -4 -15 -11
-6 -15 9 -16 30 -3 9 6 11 3 6 -10 -5 -13 3 -9 29 12 19 17 34 33 32 36 -2 3
8 11 21 17 l25 12 -3 -55 c-2 -30 0 -55 3 -55 4 0 12 -10 18 -22 10 -21 11
-21 9 10 -1 17 -5 32 -10 32 -4 0 -2 6 5 14 7 8 14 13 16 11 6 -6 72 69 78 88
4 11 12 16 21 13 10 -4 13 -2 10 7 -3 7 1 21 9 32 14 18 14 18 14 -3 0 -28 15
-29 17 0 2 24 24 42 34 27 4 -7 9 -4 12 5 4 9 13 16 21 16 8 0 20 8 25 18 9
15 10 14 11 -6 0 -13 4 -21 8 -18 5 3 17 -11 26 -31 17 -35 17 -36 0 -22 -16
13 -16 12 -6 -7 6 -11 9 -30 6 -41 -9 -32 13 -65 37 -58 11 4 19 2 19 -4 0 -6
4 -11 10 -11 5 0 7 8 3 18 -3 9 -3 14 1 10 4 -3 9 -12 10 -20 11 -68 176 -255
176 -200 0 5 14 7 31 4 30 -4 29 -4 -25 51 -31 31 -56 61 -56 67 0 6 5 8 10 5
16 -10 12 5 -9 31 -14 18 -18 36 -16 69 3 31 -1 50 -11 60 -18 18 -36 11 -27
-10 3 -8 1 -15 -5 -15 -5 0 -9 18 -9 40 2 39 16 58 18 23 0 -17 1 -17 12 -1
10 15 12 15 28 -3 12 -14 19 -16 24 -9 4 7 2 17 -4 23 -6 6 -11 15 -11 21 0 5
9 -1 20 -14 18 -21 25 -20 20 5 -1 5 12 -3 28 -20 21 -20 27 -32 19 -37 -12
-7 5 -13 26 -9 5 1 29 -12 53 -29 25 -16 52 -30 60 -30 7 0 14 -6 14 -14 0
-16 42 -24 94 -18 l37 4 -26 14 c-14 7 -31 11 -38 8 -15 -5 -102 54 -93 63 3
4 16 -2 29 -13 58 -51 56 -43 -5 25 -38 40 -68 81 -69 90 0 10 -2 12 -6 3 -2
-6 -9 -10 -14 -6 -5 3 -6 11 -2 17 4 7 8 31 8 54 1 47 8 59 25 48 9 -6 9 -9 0
-15 -9 -6 -7 -11 8 -19 20 -11 21 -10 15 21 -3 18 -13 44 -22 58 l-15 25 27
-24 c19 -17 27 -20 27 -10z m-1080 -11 c0 -5 -8 -10 -17 -10 -15 0 -16 2 -3
10 19 12 20 12 20 0z m570 6 c0 -3 -15 -14 -32 -26 l-33 -22 30 26 c31 27 35
29 35 22z m844 -55 c-2 -2 3 -13 13 -23 9 -10 14 -20 12 -22 -2 -3 -20 13 -40
35 -21 23 -30 39 -22 39 8 0 11 5 8 13 -4 6 2 1 13 -13 12 -14 19 -27 16 -29z
m-435 -45 c1 -28 1 -29 -19 -11 -30 27 -24 11 10 -27 17 -18 30 -37 29 -43 0
-5 -3 -5 -5 2 -3 7 -11 10 -18 7 -7 -3 -21 7 -30 21 -18 27 -17 47 5 102 l12
28 7 -25 c5 -14 8 -38 9 -54z m409 -36 c12 -16 22 -32 22 -36 0 -3 -25 8 -55
25 -30 17 -55 28 -55 25 0 -4 -9 3 -20 16 -11 13 -20 27 -20 31 0 4 -3 15 -7
25 -4 12 -3 15 5 10 7 -4 12 -2 12 4 0 15 90 -61 118 -100z m-1414 91 c6 -10
-24 -25 -32 -16 -3 3 0 5 7 5 7 0 9 5 6 10 -3 6 -2 10 4 10 5 0 12 -4 15 -9z
m-44 -25 c0 -3 -4 -8 -10 -11 -5 -3 -10 -1 -10 4 0 6 5 11 10 11 6 0 10 -2 10
-4z m155 -6 c3 -6 -4 -10 -17 -10 -18 0 -20 2 -8 10 19 12 18 12 25 0z m315
-9 c0 -5 -6 -14 -14 -20 -12 -10 -13 -8 -9 8 5 21 23 30 23 12z m-40 -37 c0
-8 -9 -14 -20 -14 -17 0 -19 3 -8 19 13 21 28 19 28 -5z m250 16 c0 -5 -2 -10
-4 -10 -3 0 -8 5 -11 10 -3 6 -1 10 4 10 6 0 11 -4 11 -10z m-714 -43 c-15
-19 -26 -41 -26 -50 0 -10 -4 -17 -9 -17 -15 0 1 53 23 76 32 35 40 28 12 -9z
m590 -2 c2 -5 -14 -30 -36 -55 l-39 -45 15 40 c8 22 17 48 21 58 6 18 34 20
39 2z m514 -60 c19 -23 8 -26 -19 -4 -16 13 -18 19 -8 19 8 0 20 -7 27 -15z
m-303 -50 c0 -8 -4 -15 -9 -15 -10 0 -11 14 -1 23 9 10 10 9 10 -8z m130 -22
c-3 -10 -5 -4 -5 12 0 17 2 24 5 18 2 -7 2 -21 0 -30z m968 -148 c4 -21 3 -25
-3 -15 -15 24 -26 67 -14 55 6 -5 13 -23 17 -40z m-85 3 c0 -5 -4 -8 -10 -8
-5 0 -10 10 -10 23 0 18 2 19 10 7 5 -8 10 -18 10 -22z m30 -30 c0 -9 6 -19
13 -21 9 -4 9 -6 0 -6 -14 -1 -18 5 -27 44 -5 22 -4 26 4 15 5 -8 10 -22 10
-32z m-15 -388 c-3 -5 -11 -10 -16 -10 -6 0 -7 5 -4 10 3 6 11 10 16 10 6 0 7
-4 4 -10z m15 -19 c0 -12 -20 -25 -27 -18 -7 7 6 27 18 27 5 0 9 -4 9 -9z
m-373 -27 c-3 -3 -12 -4 -19 -1 -8 3 -5 6 6 6 11 1 17 -2 13 -5z m-920 -30
c-3 -3 -12 -4 -19 -1 -8 3 -5 6 6 6 11 1 17 -2 13 -5z m1202 -103 c10 -6 15
-31 17 -73 1 -35 7 -76 14 -93 19 -49 16 -134 -8 -188 -30 -68 -62 -80 -233
-85 -143 -4 -231 9 -285 45 -26 17 -84 123 -84 153 1 13 2 13 13 -1 7 -9 24
-19 39 -22 15 -4 26 -13 24 -20 -1 -6 -1 -9 1 -4 8 13 37 7 71 -13 18 -11 40
-20 50 -20 10 0 22 -4 28 -9 9 -9 36 -14 63 -12 8 1 11 7 7 17 -3 8 -2 12 4 9
6 -3 10 0 10 8 0 10 -9 14 -29 12 -23 -2 -28 1 -23 13 4 11 2 13 -8 7 -8 -5
-11 -3 -8 6 3 8 11 13 19 12 56 -6 89 -15 89 -25 0 -7 4 -7 14 1 10 9 16 8 25
-3 11 -13 18 -12 54 4 23 10 46 26 53 34 6 9 17 16 23 16 7 0 9 5 6 10 -3 6
-1 10 5 10 7 0 9 8 5 20 -3 11 -3 20 2 20 5 0 17 15 26 33 18 33 18 36 1 73
-10 21 -21 47 -26 57 -5 12 -3 17 10 17 9 0 23 -4 31 -9z m231 -98 l0 -44 -23
26 c-17 21 -22 36 -18 68 l3 41 19 -23 c12 -15 19 -39 19 -68z m-917 30 c3 -5
-21 -8 -53 -8 -32 0 -56 3 -53 8 2 4 26 7 53 7 27 0 51 -3 53 -7z m4 -62 c22
-16 55 -81 69 -136 10 -43 77 -177 108 -218 31 -40 36 -83 9 -69 -10 4 -45 8
-78 7 -33 -1 -65 2 -70 6 -18 13 -86 11 -154 -4 -47 -10 -73 -11 -97 -4 -26 8
-38 7 -58 -7 -25 -16 -26 -16 -26 6 0 13 11 39 23 58 34 50 92 183 116 267 34
113 87 145 158 94z m-211 -133 c-46 -155 -124 -198 -356 -198 -214 1 -245 23
-279 204 -5 26 -5 43 0 40 5 -3 9 -18 9 -35 0 -16 5 -29 11 -29 5 0 8 -4 5 -9
-3 -5 3 -11 15 -14 15 -4 18 -3 9 7 -8 10 -5 12 13 9 14 -3 23 -12 23 -24 0
-12 -5 -18 -13 -15 -8 4 -13 -3 -13 -19 0 -21 3 -23 28 -16 16 5 41 15 58 23
16 9 52 23 81 32 34 12 50 22 47 30 -3 8 2 16 10 19 9 4 16 2 16 -3 0 -6 7
-10 15 -10 8 0 12 6 9 15 -6 16 37 32 55 20 14 -8 14 -41 0 -67 -10 -19 -9
-20 7 -13 11 4 30 10 43 13 13 3 33 12 43 21 10 9 22 16 26 15 4 -1 24 10 44
22 21 13 40 24 44 24 3 0 18 9 32 21 23 18 27 19 30 5 2 -9 -4 -40 -12 -68z
m-655 -64 c43 -132 71 -151 239 -161 88 -5 237 7 285 22 11 4 4 -4 -15 -16
-19 -13 -36 -27 -38 -31 -2 -4 -10 -4 -18 -1 -9 3 -14 -2 -14 -16 0 -12 5 -21
11 -21 8 0 8 -5 -1 -15 -10 -12 -10 -15 0 -15 9 0 7 -7 -5 -20 -10 -11 -14
-20 -9 -20 5 0 1 -5 -8 -11 -10 -5 -18 -17 -18 -24 0 -8 -5 -15 -10 -15 -6 0
-9 -3 -9 -7 4 -19 -27 -73 -38 -69 -17 7 -26 -11 -11 -20 8 -5 4 -10 -10 -15
-13 -5 -22 -17 -22 -29 0 -17 -4 -20 -20 -15 -20 6 -20 5 -6 -29 9 -21 11 -38
5 -41 -5 -4 -9 -2 -9 3 0 20 -30 20 -52 1 -17 -14 -18 -17 -5 -13 12 4 17 2
15 -7 -2 -7 3 -14 10 -15 6 -1 14 -3 17 -4 3 -1 10 -3 16 -4 6 0 16 -9 23 -18
7 -10 17 -18 22 -18 5 0 10 -15 11 -32 1 -18 2 -40 3 -48 3 -41 -16 -99 -39
-116 -16 -13 -54 -7 -45 7 3 5 -4 9 -15 9 -24 0 -57 29 -59 51 0 8 -3 23 -6
34 -2 11 -5 22 -5 25 -1 2 -6 -1 -13 -8 -19 -19 -30 -14 -18 8 9 16 8 20 -5
20 -12 0 -15 6 -10 20 4 12 2 20 -5 20 -7 0 -2 9 11 21 l24 20 -27 -4 c-15 -2
-27 -1 -26 2 1 3 -2 14 -6 23 -4 9 -2 26 4 38 10 19 9 21 -12 18 -18 -2 -23 2
-22 19 0 20 -1 20 -24 5 -23 -15 -26 -15 -42 6 -19 23 -30 19 -30 -12 -1 -21
-1 -21 -16 -1 -8 11 -20 19 -25 17 -6 -1 -8 6 -4 18 4 14 2 20 -8 20 -8 0 -17
10 -20 21 -4 15 -11 20 -22 15 -10 -4 -14 -2 -9 6 11 17 11 80 1 102 -7 14 -6
16 3 11 10 -6 11 -1 6 21 -4 16 -12 32 -18 35 -14 9 -6 65 10 62 15 -4 15 12
1 40 -8 15 -9 22 -1 25 7 2 6 14 -4 37 -8 20 -10 36 -5 40 6 3 7 20 5 38 -5
28 -1 34 26 50 18 9 36 15 41 11 5 -3 9 4 9 15 0 12 5 21 10 21 6 0 11 10 11
23 1 20 2 20 6 2 2 -11 18 -61 34 -111z m1662 -241 l4 -293 -23 0 c-14 0 -25
-8 -29 -19 -4 -13 -13 -18 -26 -16 -30 6 -41 16 -35 31 3 8 -1 14 -9 14 -8 0
-15 6 -15 14 0 20 -27 28 -34 10 -8 -22 -26 -7 -26 21 0 35 -18 40 -31 8 -10
-26 -12 -27 -23 -10 -7 9 -19 17 -27 17 -11 0 -11 2 1 10 8 5 10 10 4 10 -6 0
-17 -7 -24 -15 -9 -11 -9 -15 -1 -15 7 0 10 -4 7 -9 -3 -4 -17 -6 -30 -4 -26
5 -41 28 -30 45 4 7 0 7 -12 0 -25 -13 -60 8 -42 26 9 9 8 12 -6 12 -12 0 -16
5 -13 14 3 8 0 17 -8 20 -10 3 -12 0 -9 -12 5 -15 4 -15 -6 1 -6 9 -8 22 -5
27 9 14 -8 12 -25 -2 -12 -11 -12 -10 -3 2 16 23 22 59 11 66 -6 4 -5 10 3 15
11 8 11 12 -3 23 -10 7 -18 16 -18 20 0 9 -92 96 -102 96 -4 0 -8 4 -8 9 0 5
16 4 38 -2 21 -7 105 -12 202 -12 148 0 170 3 212 22 58 27 81 63 105 162 17
71 18 73 25 40 4 -19 9 -166 11 -326z m64 30 c-2 -16 -4 -5 -4 22 0 28 2 40 4
28 2 -13 2 -35 0 -50z m-1992 43 c18 -13 18 -14 -3 -27 -13 -8 -22 -24 -22
-38 0 -20 -2 -22 -15 -11 -10 9 -12 17 -6 23 5 5 7 16 4 23 -6 17 3 44 15 44
4 0 17 -6 27 -14z m851 -233 c3 -17 3 -36 -1 -42 -3 -6 -1 -11 5 -11 6 0 9 -4
6 -9 -3 -4 3 -16 14 -26 12 -10 20 -13 20 -7 0 7 -5 12 -12 12 -6 0 -8 3 -5 6
7 8 104 -55 111 -72 2 -6 0 -17 -6 -25 -8 -11 -9 -10 -4 5 5 14 2 17 -9 12
-11 -4 -19 3 -25 19 -10 26 -30 34 -30 12 0 -7 -15 -17 -32 -23 -18 -5 -32
-15 -30 -22 3 -15 -20 -16 -36 0 -7 7 -12 8 -12 2 0 -13 -33 -14 -41 -1 -4 5
-12 6 -20 1 -24 -15 -71 -13 -65 2 4 10 -3 14 -22 14 -21 0 -24 -2 -12 -10 13
-8 12 -10 -2 -10 -19 0 -23 11 -10 24 4 4 7 11 7 14 1 17 39 62 52 62 8 0 11
5 8 10 -4 6 -11 7 -17 4 -22 -14 -1 16 56 81 l59 66 23 -28 c13 -15 26 -42 30
-60z m577 -1 c10 -10 14 -22 10 -27 -5 -4 -2 -5 5 -1 7 4 10 13 6 19 -3 7 3 2
14 -10 11 -12 22 -19 26 -16 3 4 6 -2 7 -13 0 -10 2 -31 4 -45 3 -22 -2 -28
-32 -37 -35 -11 -63 -7 -63 8 0 5 -15 4 -32 -1 -18 -5 -34 -9 -35 -9 -2 0 -3
9 -3 20 0 12 5 17 13 14 11 -4 13 6 10 41 -3 26 -2 53 1 61 8 20 50 17 69 -4z
m107 -96 c0 -3 -4 -8 -10 -11 -5 -3 -10 -1 -10 4 0 6 5 11 10 11 6 0 10 -2 10
-4z m-555 -16 c3 -5 1 -10 -4 -10 -6 0 -11 5 -11 10 0 6 2 10 4 10 3 0 8 -4
11 -10z m718 -15 c-3 -9 -8 -14 -10 -11 -3 3 -2 9 2 15 9 16 15 13 8 -4z m84
-17 c-3 -7 -5 -2 -5 12 0 14 2 19 5 13 2 -7 2 -19 0 -25z m-399 0 c-2 -6 -10
-13 -16 -14 -7 -1 -8 0 -2 3 5 2 8 9 4 14 -3 5 0 9 6 9 7 0 10 -5 8 -12z m152
-8 c0 -5 -2 -10 -4 -10 -3 0 -8 5 -11 10 -3 6 -1 10 4 10 6 0 11 -4 11 -10z
m224 -25 c3 -8 1 -15 -4 -15 -6 0 -10 7 -10 15 0 8 2 15 4 15 2 0 6 -7 10 -15z
m-614 -16 c0 -5 -4 -9 -10 -9 -5 0 -10 7 -10 16 0 8 5 12 10 9 6 -3 10 -10 10
-16z m-90 1 c0 -5 -9 -10 -21 -10 -11 0 -17 5 -14 10 3 6 13 10 21 10 8 0 14
-4 14 -10z m817 -12 c-3 -8 -6 -5 -6 6 -1 11 2 17 5 13 3 -3 4 -12 1 -19z
m-1238 -1 c13 5 13 3 4 -7 -13 -15 -43 -7 -43 12 0 9 3 9 11 1 6 -6 19 -9 28
-6z m1161 -11 c0 -2 -7 -6 -15 -10 -8 -3 -15 -1 -15 4 0 6 7 10 15 10 8 0 15
-2 15 -4z m25 -6 c3 -5 1 -10 -4 -10 -6 0 -11 5 -11 10 0 6 2 10 4 10 3 0 8
-4 11 -10z m85 6 c0 -2 -8 -10 -17 -17 -16 -13 -17 -12 -4 4 13 16 21 21 21
13z m3 -67 c-4 -14 -8 -15 -18 -6 -11 10 -11 13 0 15 8 2 12 11 9 20 -5 13 -4
14 4 3 5 -7 7 -21 5 -32z m-703 -30 c0 -6 9 -9 20 -6 11 3 22 2 24 -2 3 -4 30
-8 62 -9 50 -1 60 -6 85 -33 27 -30 27 -33 11 -46 -9 -8 -11 -12 -4 -8 17 9
15 -3 -3 -21 -13 -14 -16 -14 -21 0 -3 9 0 24 7 34 12 15 11 15 -8 -1 -14 -12
-23 -15 -28 -8 -9 15 -52 14 -59 -1 -3 -7 -3 -3 0 10 3 12 1 22 -5 22 -6 0
-11 -4 -11 -10 0 -5 -5 -10 -11 -10 -5 0 -8 3 -6 8 3 4 -6 8 -19 8 -13 1 -22
-3 -21 -8 1 -6 -5 -13 -13 -15 -10 -3 -11 -2 -3 4 18 13 2 28 -33 31 -22 2
-33 -2 -38 -14 -6 -15 -8 -15 -27 2 -17 16 -22 16 -29 4 -7 -11 -10 -12 -10
-2 0 7 -4 11 -9 8 -5 -4 -28 -7 -50 -8 -32 -1 -38 -4 -30 -14 8 -10 5 -12 -17
-8 -15 3 -36 10 -47 15 -11 6 -17 7 -14 2 3 -5 2 -15 -3 -23 -7 -12 -11 -12
-26 1 -10 8 -15 9 -11 3 5 -8 -3 -11 -25 -10 -20 0 -33 -4 -35 -14 -4 -13 -3
-13 7 0 9 13 10 12 7 -5 -3 -21 -8 -22 -42 -9 -17 6 -18 5 -7 -7 7 -8 18 -14
24 -14 6 0 13 -6 16 -12 2 -7 -1 -13 -8 -13 -6 0 -8 -5 -5 -10 4 -6 11 -8 16
-5 5 4 9 1 9 -4 0 -6 6 -10 13 -8 6 1 11 -5 9 -14 -1 -10 7 -20 20 -24 35 -12
110 -25 141 -25 15 0 27 -4 27 -9 0 -6 19 -8 43 -7 23 2 48 -1 55 -6 8 -7 16
-7 25 -1 9 7 169 10 209 4 3 -1 4 -11 1 -23 -4 -19 -3 -20 6 -8 10 13 13 13
22 -2 5 -10 16 -18 24 -18 8 0 17 -11 21 -25 3 -14 10 -25 15 -25 21 0 6 -19
-27 -35 -29 -14 -41 -15 -61 -6 -22 10 -24 9 -18 -9 3 -11 2 -20 -3 -20 -14 0
-33 26 -25 33 3 4 -1 7 -11 7 -9 0 -15 -4 -12 -9 3 -5 -1 -12 -10 -15 -8 -3
-13 -2 -10 3 4 5 -3 7 -14 4 -16 -4 -18 -8 -9 -19 14 -17 6 -17 -43 -3 -25 6
-38 16 -38 27 -1 16 -1 16 -11 -1 -5 -9 -7 -22 -4 -27 10 -16 -15 -11 -33 6
-9 10 -18 12 -20 6 -1 -5 -11 -8 -21 -5 -11 3 -24 -3 -32 -14 -11 -14 -27 -18
-72 -18 -31 0 -57 3 -57 8 0 4 9 7 20 7 14 0 18 5 13 16 -5 13 -7 13 -14 2 -8
-11 -10 -11 -18 0 -4 8 -12 14 -17 15 -5 1 -8 6 -6 11 2 5 -3 13 -10 18 -11 6
-11 10 1 17 7 5 9 11 4 14 -5 3 -14 -3 -21 -14 -7 -10 -9 -19 -4 -19 4 0 8 -9
8 -19 0 -11 -4 -17 -9 -14 -4 2 -14 0 -21 -6 -16 -14 -46 -4 -46 15 0 17 -26
18 -34 2 -4 -9 -5 -8 -5 2 2 30 -1 41 -10 35 -5 -3 -19 7 -30 21 -12 15 -21
23 -21 19 0 -5 -8 -1 -18 8 -10 10 -21 15 -24 12 -3 -3 -10 13 -17 36 -9 30
-9 45 -2 52 8 8 11 5 12 -8 0 -11 3 -15 5 -8 3 7 0 21 -5 32 -8 14 -8 22 1 27
6 4 8 3 5 -3 -4 -6 2 -13 13 -16 15 -4 20 0 20 15 0 10 -4 17 -8 14 -4 -2 -14
-1 -21 4 -11 6 -11 12 3 31 9 13 16 30 16 37 0 7 18 32 41 55 46 47 40 46 272
50 70 1 127 5 127 9 0 4 14 5 30 2 19 -4 30 -2 30 5 0 6 7 11 15 11 8 0 15 -5
15 -11z m691 -22 c-10 -9 -11 -8 -5 6 3 10 9 15 12 12 3 -3 0 -11 -7 -18z
m-407 -116 c3 -5 -3 -11 -13 -14 -14 -3 -18 -1 -14 9 6 16 19 18 27 5z m0
-116 c-4 -8 -10 -15 -15 -15 -4 0 -6 7 -3 15 4 8 10 15 15 15 4 0 6 -7 3 -15z
m-58 -40 l3 -29 -20 29 c-19 28 -20 28 -14 5 l7 -25 -21 24 c-11 13 -21 25
-21 26 0 1 14 2 31 1 27 -1 32 -5 35 -31z m44 1 c0 -3 -4 -8 -10 -11 -5 -3
-10 -1 -10 4 0 6 5 11 10 11 6 0 10 -2 10 -4z m-753 -120 c0 -8 -6 -12 -14 -9
-7 3 -13 9 -13 14 0 5 6 9 13 9 8 0 14 -6 14 -14z m-987 -56 c0 -5 -5 -10 -11
-10 -5 0 -7 5 -4 10 3 6 8 10 11 10 2 0 4 -4 4 -10z m164 -49 c3 -5 -2 -15
-12 -22 -15 -12 -16 -12 -5 2 7 9 10 19 6 22 -3 4 -4 7 0 7 3 0 8 -4 11 -9z
m-120 -19 c3 -5 -1 -9 -9 -9 -8 0 -12 4 -9 9 3 4 7 8 9 8 2 0 6 -4 9 -8z m-29
-62 c-1 -8 -11 -16 -23 -16 -12 -1 -19 3 -16 8 3 4 11 6 17 2 7 -3 3 2 -7 10
-19 16 -19 16 6 14 17 -1 25 -8 23 -18z m1152 -12 c-3 -8 -6 -5 -6 6 -1 11 2
17 5 13 3 -3 4 -12 1 -19z m413 -13 c0 -8 -4 -17 -10 -20 -6 -4 -10 5 -10 20
0 15 4 24 10 20 6 -3 10 -12 10 -20z m-2002 -62 c6 -19 -25 -16 -32 3 -4 11
-1 14 11 12 9 -2 18 -9 21 -15z m66 -12 c4 -5 -3 -7 -14 -4 -23 6 -26 13 -6
13 8 0 17 -4 20 -9z m-147 -43 c2 -17 0 -19 -7 -8 -5 8 -6 18 -4 22 8 12 10
10 11 -14z m56 15 c-7 -2 -19 -2 -25 0 -7 3 -2 5 12 5 14 0 19 -2 13 -5z m37
-23 c0 -5 -5 -10 -11 -10 -5 0 -7 5 -4 10 3 6 8 10 11 10 2 0 4 -4 4 -10z
m-170 -80 c-8 -5 -7 -9 4 -13 9 -4 16 -12 15 -19 0 -9 -2 -10 -5 -1 -7 16 -34
5 -34 -13 0 -8 -4 -14 -8 -14 -10 0 -8 33 3 68 6 18 10 20 22 11 10 -9 11 -14
3 -19z m73 -14 c-11 -6 -18 -5 -21 2 -2 7 -9 9 -15 5 -7 -4 -6 0 1 10 11 13
17 14 33 4 17 -11 17 -12 2 -21z m174 -2 c-3 -3 -12 -4 -19 -1 -8 3 -5 6 6 6
11 1 17 -2 13 -5z m-327 -68 c0 -3 -4 -8 -10 -11 -5 -3 -10 -1 -10 4 0 6 5 11
10 11 6 0 10 -2 10 -4z m110 -21 c0 -8 -4 -15 -9 -15 -5 0 -11 7 -15 15 -3 9
0 15 9 15 8 0 15 -7 15 -15z m3140 -114 c0 -12 -41 -63 -47 -57 -5 5 35 66 43
66 2 0 4 -4 4 -9z m-98 -43 c-7 -7 -12 -8 -12 -2 0 14 12 26 19 19 2 -3 -1
-11 -7 -17z m-1292 -58 c0 -5 -2 -10 -4 -10 -3 0 -8 5 -11 10 -3 6 -1 10 4 10
6 0 11 -4 11 -10z"/>
<path d="M2224 3467 c-6 -16 14 -73 22 -64 3 3 1 14 -5 25 -6 11 -8 28 -5 36
3 9 3 16 0 16 -4 0 -9 -6 -12 -13z"/>
<path d="M1515 3160 c3 -5 8 -10 11 -10 2 0 4 5 4 10 0 6 -5 10 -11 10 -5 0
-7 -4 -4 -10z"/>
<path d="M1185 2580 c3 -5 8 -10 11 -10 2 0 4 5 4 10 0 6 -5 10 -11 10 -5 0
-7 -4 -4 -10z"/>
<path d="M1600 3379 c0 -5 5 -7 10 -4 6 3 10 8 10 11 0 2 -4 4 -10 4 -5 0 -10
-5 -10 -11z"/>
<path d="M2555 2199 c-11 -16 -1 -19 13 -3 7 8 8 14 3 14 -5 0 -13 -5 -16 -11z"/>
<path d="M2520 2180 c0 -5 5 -10 10 -10 6 0 10 5 10 10 0 6 -4 10 -10 10 -5 0
-10 -4 -10 -10z"/>
<path d="M1380 1944 c0 -8 5 -12 10 -9 6 4 8 11 5 16 -9 14 -15 11 -15 -7z"/>
<path d="M1260 1686 c7 -7 13 -7 20 0 6 6 3 10 -10 10 -13 0 -16 -4 -10 -10z"/>
<path d="M1363 1648 c-2 -16 0 -19 6 -9 5 7 15 17 22 22 11 7 9 9 -6 9 -14 0
-21 -7 -22 -22z"/>
<path d="M1430 1630 c0 -5 5 -10 10 -10 6 0 10 5 10 10 0 6 -4 10 -10 10 -5 0
-10 -4 -10 -10z"/>
<path d="M1377 1623 c-13 -12 -7 -33 9 -33 8 0 12 5 8 11 -3 6 0 15 7 20 11 7
11 9 -2 9 -9 0 -19 -3 -22 -7z"/>
<path d="M1418 1543 c7 -3 16 -2 19 1 4 3 -2 6 -13 5 -11 0 -14 -3 -6 -6z"/>
<path d="M1420 1520 c0 -5 7 -10 16 -10 8 0 12 5 9 10 -3 6 -10 10 -16 10 -5
0 -9 -4 -9 -10z"/>
<path d="M1445 1400 c3 -5 8 -10 11 -10 2 0 4 5 4 10 0 6 -5 10 -11 10 -5 0
-7 -4 -4 -10z"/>
<path d="M2630 1791 c0 -6 5 -13 10 -16 6 -3 10 1 10 9 0 9 -4 16 -10 16 -5 0
-10 -4 -10 -9z"/>
<path d="M2577 1735 c-4 -8 -2 -17 2 -20 5 -2 11 4 14 15 6 23 -8 27 -16 5z"/>
<path d="M2765 1720 c-3 -6 1 -7 9 -4 18 7 21 14 7 14 -6 0 -13 -4 -16 -10z"/>
<path d="M2867 1681 c3 -12 9 -21 14 -21 14 0 11 16 -5 29 -12 10 -13 8 -9 -8z"/>
<path d="M1770 1684 c0 -8 5 -12 10 -9 6 4 8 11 5 16 -9 14 -15 11 -15 -7z"/>
<path d="M1667 1655 c-9 -23 11 -28 23 -5 8 16 8 20 -4 20 -7 0 -16 -7 -19
-15z"/>
<path d="M2406 1695 c4 -8 8 -15 10 -15 2 0 4 7 4 15 0 8 -4 15 -10 15 -5 0
-7 -7 -4 -15z"/>
<path d="M2436 1668 c3 -5 10 -6 15 -3 13 9 11 12 -6 12 -8 0 -12 -4 -9 -9z"/>
<path d="M1711 1254 c0 -11 3 -14 6 -6 3 7 2 16 -1 19 -3 4 -6 -2 -5 -13z"/>
<path d="M1715 1180 c-3 -5 -1 -10 4 -10 6 0 11 5 11 10 0 6 -2 10 -4 10 -3 0
-8 -4 -11 -10z"/>
<path d="M1695 1129 c-4 -6 -5 -12 -2 -15 2 -3 7 2 10 11 7 17 1 20 -8 4z"/>
<path d="M1720 1130 c0 -5 4 -10 9 -10 6 0 13 5 16 10 3 6 -1 10 -9 10 -9 0
-16 -4 -16 -10z"/>
<path d="M2340 1119 c0 -5 5 -7 10 -4 6 3 10 8 10 11 0 2 -4 4 -10 4 -5 0 -10
-5 -10 -11z"/>
<path d="M1945 1040 c3 -5 11 -10 16 -10 6 0 7 5 4 10 -3 6 -11 10 -16 10 -6
0 -7 -4 -4 -10z"/>
<path d="M1370 4059 c0 -5 5 -7 10 -4 6 3 10 8 10 11 0 2 -4 4 -10 4 -5 0 -10
-5 -10 -11z"/>
<path d="M1457 4064 c-7 -8 3 -34 13 -34 9 0 8 26 -1 35 -3 3 -8 2 -12 -1z"/>
<path d="M7 3583 c-4 -3 -7 -14 -7 -24 0 -13 7 -17 27 -15 15 2 29 9 31 16 3
7 0 10 -6 6 -14 -8 -43 4 -36 15 6 11 0 12 -9 2z"/>
<path d="M225 3571 c3 -5 -3 -12 -12 -14 -14 -4 -13 -5 4 -6 27 -1 39 15 17
23 -8 3 -12 2 -9 -3z"/>
<path d="M477 3569 c7 -7 15 -10 18 -7 3 3 -2 9 -12 12 -14 6 -15 5 -6 -5z"/>
<path d="M95 3540 c-3 -6 1 -7 9 -4 18 7 21 14 7 14 -6 0 -13 -4 -16 -10z"/>
<path d="M2840 3326 c0 -2 8 -10 18 -17 15 -13 16 -12 3 4 -13 16 -21 21 -21
13z"/>
<path d="M703 1085 c5 -11 -18 -37 -25 -29 -3 2 -5 -3 -5 -11 0 -13 3 -13 18
1 10 9 22 14 26 11 13 -8 39 10 29 20 -5 4 -11 2 -13 -5 -4 -10 -9 -8 -20 5
-8 10 -12 14 -10 8z"/>
<path d="M771 1076 c-7 -8 -8 -17 -3 -20 6 -3 12 3 15 14 6 24 4 25 -12 6z"/>
<path d="M527 973 c-10 -21 -1 -56 15 -59 24 -3 31 11 13 26 -12 10 -13 16 -4
26 9 11 8 14 -4 14 -9 0 -18 -3 -20 -7z"/>
<path d="M300 869 c0 -5 5 -7 10 -4 6 4 17 1 25 -5 9 -7 15 -8 15 -2 0 10 -23
22 -41 22 -5 0 -9 -5 -9 -11z"/>
<path d="M255 859 c-3 -4 1 -9 9 -12 14 -6 26 0 26 13 0 9 -30 9 -35 -1z"/>
<path d="M195 850 c3 -5 10 -10 16 -10 5 0 9 5 9 10 0 6 -7 10 -16 10 -8 0
-12 -4 -9 -10z"/>
<path d="M24 803 c3 -4 1 -12 -5 -20 -7 -8 -8 -13 -1 -13 5 0 13 7 16 16 3 9
11 12 18 8 7 -4 9 -3 5 1 -4 5 -15 10 -23 11 -9 1 -13 0 -10 -3z"/>
<path d="M83 802 c-7 -4 -9 -13 -5 -19 5 -8 13 -9 22 -3 10 6 11 13 5 19 -6 6
-16 7 -22 3z"/>
<path d="M150 806 c0 -2 7 -7 16 -10 8 -3 12 -2 9 4 -6 10 -25 14 -25 6z"/>
<path d="M102 764 c-8 -8 -11 -22 -8 -31 4 -9 8 -14 9 -12 27 38 36 59 25 59
-7 -1 -19 -8 -26 -16z"/>
<path d="M0 750 c0 -5 5 -10 10 -10 6 0 10 5 10 10 0 6 -4 10 -10 10 -5 0 -10
-4 -10 -10z"/>
<path d="M10 680 c0 -5 5 -10 10 -10 6 0 10 5 10 10 0 6 -4 10 -10 10 -5 0
-10 -4 -10 -10z"/>
</g>
</svg>
